<svg width="136" height="136" viewBox="0 0 136 136" fill="none" xmlns="http://www.w3.org/2000/svg">
<rect width="136" height="136" fill="#E9E8E7"/>
<path d="M108 73.9469V81.5263C108 88.1165 104.972 93.2717 100.401 97.1311L90.5526 105.421C95.1228 101.576 98.1511 96.4066 98.1511 89.8163V57.0604C83.5791 50.6513 73.119 42.3891 63.0756 30.2119L72.9245 21.9219C82.9679 34.0991 93.4281 42.3613 108 48.7703V73.9469Z" fill="#E9E8E7"/>
<path d="M98.1372 82.2377V89.8171C98.1372 96.4073 95.1089 101.576 90.5386 105.422C83.2874 111.524 72.1327 114.325 63.0755 114.241C48.3091 103.597 28 81.2763 28 64.2086V31.4527C42.572 35.6882 53.0321 35.0613 63.0755 30.2126C73.1189 42.3899 83.5652 50.652 98.1511 57.0611V82.2377H98.1372Z" fill="#E9E8E7"/>
<path d="M72.9245 21.9219L63.0755 30.2119C53.0321 35.0605 42.572 35.6875 28 31.4519L37.8489 23.1619C52.4209 27.3975 62.8811 26.7705 72.9245 21.9219Z" fill="#E9E8E7"/>
<path d="M90.5386 105.422C83.2874 111.524 72.1327 114.325 63.0755 114.241C48.3091 103.597 28 81.2763 28 64.2086V31.4527C42.572 35.6882 53.0321 35.0613 63.0755 30.2126C73.1189 42.3899 83.5652 50.652 98.1511 57.0611V89.8171C98.1511 96.4073 95.1228 101.576 90.5525 105.422H90.5386Z" stroke="#5A6C75" stroke-width="1.2" stroke-linecap="round" stroke-linejoin="round"/>
<path d="M28 31.4519L37.8489 23.1619C52.4209 27.3975 62.881 26.7705 72.9245 21.9219C82.9679 34.0991 93.428 42.3613 108 48.7703V81.5263C108 88.1166 104.972 93.2717 100.401 97.1311L90.5525 105.421" stroke="#5A6C75" stroke-width="1.2" stroke-linecap="round" stroke-linejoin="round"/>
<path d="M63.0756 30.2119L72.9245 21.9219" stroke="#5A6C75" stroke-width="1.2" stroke-linecap="round" stroke-linejoin="round"/>
<path d="M72.9432 69.5553V90.2788C72.9432 90.7062 72.7256 91.1306 72.2687 91.5057L70.2513 93.1509C69.0801 94.1104 66.7959 94.3318 65.1434 93.6553L47.6672 86.4717C46.6615 86.0566 46.125 85.4046 46.125 84.7404V64.017C46.125 64.6781 46.6615 65.3362 47.6672 65.7483L65.1434 72.9288C66.7929 73.6084 69.0801 73.3808 70.2513 72.4244L72.2687 70.7792C72.7256 70.4071 72.9432 69.9766 72.9432 69.5522V69.5553ZM58.5147 80.3183C59.272 80.1461 59.784 79.5003 59.784 78.5409C59.784 77.114 58.6435 75.5396 57.2392 75.026C55.8319 74.5125 54.6945 75.2566 54.6945 76.6804C54.6945 77.6399 55.2065 78.6608 55.9638 79.3835L55.6051 82.9384L58.8734 84.1285L58.5147 80.3153V80.3183Z" fill="#E9E8E7"/>
<path d="M72.9432 69.5563C72.9432 69.9807 72.7256 70.4081 72.2687 70.7833L70.2513 72.4285C69.0801 73.3849 66.7959 73.6094 65.1434 72.9328L47.6672 65.7524C46.6615 65.3372 46.125 64.6822 46.125 64.021C46.125 63.5967 46.3427 63.1692 46.8026 62.7941L48.82 61.1489C49.375 60.6937 50.1844 60.4047 51.0612 60.3001C51.0612 60.3001 51.0612 64.224 51.0612 64.2332C51.0643 64.633 51.3954 65.0266 51.9964 65.2696C52.9959 65.6847 54.3787 65.5432 55.093 64.9651C55.369 64.7406 55.5039 64.4823 55.5039 64.224V61.2995L63.3835 64.5377V69.2334C63.3804 69.2672 63.3835 69.3072 63.3835 69.3411C63.4141 69.7285 63.7361 70.0975 64.3186 70.3374C65.3181 70.7525 66.7101 70.6142 67.4153 70.036C67.6912 69.8085 67.8261 69.5502 67.8261 69.2918V66.3674L71.4011 67.8342C72.4067 68.2494 72.9432 68.9044 72.9432 69.5655V69.5563Z" fill="#E9E8E7"/>
<path d="M63.3835 69.2264V69.3341C63.3805 69.3002 63.3805 69.2603 63.3835 69.2264Z" fill="#E9E8E7"/>
<path d="M59.784 78.5439C59.784 79.5034 59.272 80.1492 58.5147 80.3214L58.8734 84.1346L55.6051 82.9445L55.9638 79.3896C55.2065 78.6669 54.6945 77.646 54.6945 76.6865C54.6945 75.2597 55.835 74.5186 57.2392 75.0321C58.6465 75.5457 59.784 77.1201 59.784 78.547V78.5439Z" fill="#E9E8E7"/>
<path d="M55.5039 61.2936L63.3835 64.5318" stroke="#5A6C75" stroke-width="1.2" stroke-linecap="round" stroke-linejoin="round"/>
<path d="M67.8261 66.3586L71.4011 67.8254C72.4067 68.2406 72.9432 68.8956 72.9432 69.5567C72.9432 69.9811 72.7256 70.4086 72.2687 70.7837L70.2513 72.4289C69.0801 73.3853 66.7959 73.6098 65.1434 72.9333L47.6672 65.7528C46.6615 65.3376 46.125 64.6826 46.125 64.0215C46.125 63.5971 46.3427 63.1697 46.8026 62.7945L48.82 61.1493C49.375 60.6942 50.1844 60.4051 51.0612 60.3005" stroke="#5A6C75" stroke-width="1.2" stroke-linecap="round" stroke-linejoin="round"/>
<path d="M72.9432 69.5557V90.2792C72.9432 90.7066 72.7256 91.131 72.2687 91.5062L70.2513 93.1514C69.0801 94.1108 66.7959 94.3322 65.1434 93.6557L47.6672 86.4721C46.6615 86.057 46.125 85.4051 46.125 84.7408V64.0174" stroke="#5A6C75" stroke-width="1.2" stroke-linecap="round" stroke-linejoin="round"/>
<path d="M51.0582 64.2023V56.662C51.0582 54.3157 52.2172 52.1354 54.1579 50.8254C56.1018 49.5184 58.5546 49.2663 60.7192 50.155C65.0361 51.9293 67.8262 56.0962 67.8262 60.7765V69.2855C67.8262 69.5438 67.6943 69.8052 67.4153 70.0297C66.7071 70.6078 65.3182 70.7462 64.3187 70.331C63.7361 70.0912 63.4142 69.7222 63.3835 69.3347C63.3835 69.3009 63.3805 69.2609 63.3835 69.2271" stroke="#5A6C75" stroke-width="1.2" stroke-linecap="round" stroke-linejoin="round"/>
<path d="M63.3835 69.3351V60.7739C63.3835 57.9109 61.6788 55.3647 59.039 54.2792C58.2357 53.9501 57.3588 54.0393 56.6353 54.5252C55.9148 55.0111 55.5009 55.7921 55.5009 56.6624V64.2211C55.5009 64.4794 55.369 64.7378 55.09 64.9622C54.3756 65.5404 52.9929 65.6818 51.9934 65.2667C51.3894 65.0207 51.0613 64.6301 51.0582 64.2304C51.0582 64.2242 51.0582 64.215 51.0582 64.2058" stroke="#5A6C75" stroke-width="1.2" stroke-linecap="round" stroke-linejoin="round"/>
<path d="M58.5147 80.3195L58.8734 84.1327L55.6051 82.9426L55.9638 79.3877C55.2065 78.665 54.6945 77.6441 54.6945 76.6846C54.6945 75.2578 55.835 74.5167 57.2392 75.0302C58.6465 75.5438 59.784 77.1182 59.784 78.5451C59.784 79.5046 59.272 80.1503 58.5147 80.3225V80.3195Z" stroke="#5A6C75" stroke-width="1.2" stroke-linecap="round" stroke-linejoin="round"/>
</svg>
