<svg width="136" height="136" viewBox="0 0 136 136" fill="none" xmlns="http://www.w3.org/2000/svg">
  <!-- Group 1: Main shield shape -->
  <!-- Fill layer: x=27.99, y=21.92, w=79.94, h=87.49 -->
  <svg x="27.99" y="21.92" width="79.94" height="87.49" viewBox="0 0 80 92.3212" preserveAspectRatio="none" overflow="visible">
    <g>
      <path d="M80 52.0251V59.6045C80 66.1947 76.9717 71.3498 72.4015 75.2092L62.5525 83.4992C67.1228 79.6538 70.1511 74.4847 70.1511 67.8945V35.1385C55.5791 28.7294 45.1189 20.4673 35.0755 8.29004L44.9245 2.45065e-05C54.9679 12.1773 65.428 20.4394 80 26.8485V52.0251Z" fill="#E9E8E7"/>
      <path d="M70.1372 60.3157V67.8952C70.1372 74.4854 67.1089 79.6544 62.5386 83.4999C55.2874 89.6025 44.1327 92.4029 35.0755 92.3194C20.3091 81.6747 0 59.3544 0 42.2867V9.53076C14.572 13.7663 25.0321 13.1394 35.0755 8.29074C45.1189 20.468 55.5652 28.7301 70.1511 35.1392V60.3157H70.1372Z" fill="#E9E8E7"/>
      <path d="M44.9245 0L35.0755 8.29001C25.0321 13.1386 14.572 13.7656 1.34735e-05 9.53003L9.84895 1.24002C24.4209 5.47558 34.8811 4.84861 44.9245 0Z" fill="#E9E8E7"/>
    </g>
  </svg>
  <!-- Stroke layer: inner inset adjustment -0.65% top/bottom, -0.75% left/right of 136 = -0.884, -1.02 -->
  <!-- Adjusted: x=27.99-1.02=26.97, y=21.92-0.884=21.036, w=79.94+2*1.02=81.98, h=87.49+2*0.884=89.258 -->
  <svg x="26.97" y="21.036" width="81.98" height="89.258" viewBox="0 0 81.2 93.5212" preserveAspectRatio="none" overflow="visible">
    <g>
      <path d="M63.1386 84.0999C55.8874 90.2025 44.7327 93.003 35.6755 92.9194C20.9091 82.2747 0.6 59.9544 0.6 42.8868V10.1308C15.172 14.3664 25.6321 13.7394 35.6755 8.89078C45.7189 21.068 56.1652 29.3302 70.7511 35.7392V68.4952C70.7511 75.0854 67.7228 80.2545 63.1525 84.0999H63.1386Z" stroke="#5A6C75" stroke-width="1.2" stroke-linecap="round" stroke-linejoin="round"/>
      <path d="M0.600013 10.1301L10.4489 1.84005C25.0209 6.07562 35.4811 5.44864 45.5245 0.600035C55.5679 12.7773 66.028 21.0394 80.6 27.4485V60.2045C80.6 66.7947 77.5717 71.9498 73.0015 75.8092L63.1525 84.0992" stroke="#5A6C75" stroke-width="1.2" stroke-linecap="round" stroke-linejoin="round"/>
      <path d="M35.6755 8.89007L45.5245 0.60006" stroke="#5A6C75" stroke-width="1.2" stroke-linecap="round" stroke-linejoin="round"/>
    </g>
  </svg>

  <!-- Group 2: Inner lock/key element -->
  <!-- Fill layer: x=46.13, y=49.63, w=26.82, h=44.41 -->
  <svg x="46.13" y="49.63" width="26.82" height="44.41" viewBox="0 0 26.8182 44.4188" preserveAspectRatio="none" overflow="visible">
    <g>
      <path d="M26.8182 19.9275V40.6509C26.8182 41.0784 26.6006 41.5027 26.1437 41.8779L24.1263 43.5231C22.9551 44.4826 20.6709 44.704 19.0184 44.0274L1.54219 36.8439C0.536549 36.4287 0 35.7768 0 35.1126V14.3891C0 15.0503 0.536549 15.7084 1.54219 16.1204L19.0184 23.3009C20.6679 23.9805 22.9551 23.753 24.1263 22.7966L26.1437 21.1514C26.6006 20.7793 26.8182 20.3488 26.8182 19.9244V19.9275ZM12.3897 30.6905C13.147 30.5183 13.659 29.8725 13.659 28.9131C13.659 27.4862 12.5185 25.9117 11.1142 25.3982C9.70694 24.8846 8.56945 25.6288 8.56945 27.0526C8.56945 28.0121 9.08147 29.033 9.83877 29.7557L9.48005 33.3105L12.7484 34.5006L12.3897 30.6874V30.6905Z" fill="#E9E8E7"/>
      <path d="M26.8182 19.9285C26.8182 20.3529 26.6006 20.7803 26.1437 21.1555L24.1263 22.8007C22.9551 23.757 20.6709 23.9815 19.0184 23.305L1.54219 16.1245C0.536549 15.7094 0 15.0544 0 14.3932C0 13.9688 0.217685 13.5414 0.677584 13.1662L2.69501 11.521C3.24995 11.0659 4.05938 10.7768 4.93625 10.6723C4.93625 10.6723 4.93625 14.5962 4.93625 14.6054C4.93932 15.0052 5.27044 15.3988 5.87138 15.6417C6.87089 16.0569 8.25366 15.9154 8.96803 15.3373C9.24397 15.1128 9.37887 14.8545 9.37887 14.5962V11.6717L17.2585 14.9098V19.6056C17.2554 19.6394 17.2585 19.6794 17.2585 19.7132C17.2891 20.1007 17.6111 20.4697 18.1936 20.7096C19.1931 21.1247 20.5851 20.9863 21.2903 20.4082C21.5662 20.1806 21.7011 19.9223 21.7011 19.664V16.7396L25.2761 18.2064C26.2817 18.6215 26.8182 19.2766 26.8182 19.9377V19.9285Z" fill="#E9E8E7"/>
      <path d="M17.2585 19.5987V19.7063C17.2554 19.6725 17.2554 19.6325 17.2585 19.5987Z" fill="#E9E8E7"/>
      <path d="M13.659 28.9161C13.659 29.8756 13.147 30.5214 12.3897 30.6936L12.7484 34.5068L9.48005 33.3167L9.83877 29.7618C9.08147 29.0391 8.56945 28.0182 8.56945 27.0587C8.56945 25.6319 9.71 24.8908 11.1142 25.4043C12.5215 25.9179 13.659 27.4923 13.659 28.9192V28.9161Z" fill="#E9E8E7"/>
    </g>
  </svg>
  <!-- Stroke layer: inner inset adjustment -1.35% top/bottom, -2.24% left/right of 136 = -1.836, -3.046 -->
  <!-- Adjusted: x=46.13-3.046=43.084, y=49.63-1.836=47.794, w=26.82+2*3.046=32.912, h=44.41+2*1.836=48.082 -->
  <svg x="43.084" y="47.794" width="32.912" height="48.082" viewBox="0 0 28.0182 45.6164" preserveAspectRatio="none" overflow="visible">
    <g>
      <path d="M9.97888 12.2631L17.8585 15.5013" stroke="#5A6C75" stroke-width="1.2" stroke-linecap="round" stroke-linejoin="round"/>
      <path d="M22.3011 17.328L25.8761 18.7949C26.8817 19.21 27.4182 19.865 27.4182 20.5262C27.4182 20.9506 27.2006 21.378 26.7437 21.7532L24.7263 23.3984C23.5551 24.3548 21.2709 24.5792 19.6184 23.9027L2.14219 16.7222C1.13655 16.3071 0.6 15.6521 0.6 14.9909C0.6 14.5665 0.817685 14.1391 1.27758 13.7639L3.29501 12.1187C3.84995 11.6636 4.65938 11.3745 5.53625 11.27" stroke="#5A6C75" stroke-width="1.2" stroke-linecap="round" stroke-linejoin="round"/>
      <path d="M27.4182 20.5252V41.2486C27.4182 41.6761 27.2006 42.1004 26.7437 42.4756L24.7263 44.1208C23.5551 45.0803 21.2709 45.3017 19.6184 44.6251L2.14219 37.4416C1.13655 37.0264 0.6 36.3745 0.6 35.7103V14.9868" stroke="#5A6C75" stroke-width="1.2" stroke-linecap="round" stroke-linejoin="round"/>
      <path d="M5.53319 15.1717V7.63145C5.53319 5.28511 6.69214 3.10482 8.63291 1.79481C10.5768 0.487872 13.0296 0.235709 15.1941 1.12443C19.5111 2.89879 22.3011 7.06562 22.3011 11.746V20.2549C22.3011 20.5133 22.1693 20.7746 21.8903 20.9991C21.182 21.5773 19.7931 21.7156 18.7936 21.3005C18.2111 21.0606 17.8892 20.6916 17.8585 20.3041C17.8585 20.2703 17.8554 20.2303 17.8585 20.1965" stroke="#5A6C75" stroke-width="1.2" stroke-linecap="round" stroke-linejoin="round"/>
      <path d="M17.8585 20.3046V11.7433C17.8585 8.88037 16.1538 6.33415 13.514 5.24862C12.7107 4.91958 11.8338 5.00876 11.1102 5.49463C10.3897 5.98051 9.97582 6.7616 9.97582 7.63186V15.1906C9.97582 15.4489 9.84398 15.7072 9.56498 15.9317C8.8506 16.5098 7.46784 16.6513 6.46832 16.2361C5.86432 15.9901 5.53626 15.5996 5.53319 15.1998C5.53319 15.1937 5.53319 15.1844 5.53319 15.1752" stroke="#5A6C75" stroke-width="1.2" stroke-linecap="round" stroke-linejoin="round"/>
      <path d="M12.9897 31.2889L13.3484 35.1021L10.08 33.912L10.4388 30.3571C9.68147 29.6345 9.16945 28.6135 9.16945 27.6541C9.16945 26.2272 10.31 25.4861 11.7142 25.9997C13.1215 26.5132 14.259 28.0877 14.259 29.5146C14.259 30.474 13.747 31.1198 12.9897 31.292V31.2889Z" stroke="#5A6C75" stroke-width="1.2" stroke-linecap="round" stroke-linejoin="round"/>
    </g>
  </svg>
</svg>
