<svg width="136" height="136" viewBox="0 0 136 136" fill="none" xmlns="http://www.w3.org/2000/svg">
<g id="Frame 119">
<rect width="136" height="136" fill="#E9E8E7"/>
<path id="Vector" d="M52.4123 45.129C53.0206 45.7098 52.9268 46.7045 52.2225 47.1619C51.7446 47.4729 51.1226 47.4386 50.6835 47.075L43.9993 41.5777H43.9925C44.0336 39.3001 44.0451 36.1055 43.8873 33.8004C44.7494 33.6472 45.4583 33.3385 46.0254 32.904L46.5514 32.8926C46.5651 33.2745 46.5719 33.6518 46.5674 34.036C46.5674 34.036 46.5514 37.1894 46.5308 39.5059L52.4123 45.1267V45.129Z" fill="#E9E8E7"/>
<path id="Vector_2" d="M30.5693 38.6473C30.2903 38.6565 29.9747 38.6519 29.6066 38.6336C29.4694 38.6267 29.3322 38.6176 29.2087 38.613C29.2018 38.613 29.1927 38.613 29.1858 38.613C29.1812 38.613 29.1767 38.613 29.1721 38.613C28.1774 38.5878 27.2489 38.4438 26.4143 38.1762C26.4692 34.9748 26.6475 32.3039 27.0271 31.2108C27.8183 28.9149 30.0159 27.5154 32.2638 26.4429C32.7691 26.2074 33.2745 25.9787 33.7707 25.7683C34.3013 26.2829 34.9416 26.5801 35.5498 26.6099C36.7755 26.6716 37.4798 25.6494 37.6719 24.5266C37.752 24.5198 37.8343 24.5152 37.9143 24.506C38.326 24.4603 38.6644 24.2797 38.9411 24.0258C39.0097 23.9641 39.0783 23.8909 39.1377 23.82C40.2262 23.6782 41.2621 23.852 42.4581 24.5015C43.1373 24.8696 44.5802 25.8644 45.1999 27.0626C46.1421 28.8737 46.4782 30.8609 46.5514 32.8961L46.0254 32.9076C45.4583 33.342 44.7471 33.6485 43.8873 33.804C44.0451 36.109 44.036 39.3036 43.9925 41.5812C43.9696 42.8183 43.9193 44.3436 43.9171 44.3939L38.5386 46.9825C37.6994 47.0854 36.3113 48.3866 32.513 48.1945C32.2501 48.1808 32.0077 48.1579 31.7836 48.1282L29.8718 46.3308L30.5693 38.6496V38.6473Z" fill="#E9E8E7"/>
<path id="Vector_3" d="M43.5923 80.804C43.6152 80.8201 48.2413 84.5452 44.9552 84.3782C43.1029 84.2845 40.926 82.9902 40.5829 81.1951C41.118 81.8011 42.0305 82.0069 42.808 81.6021C43.151 81.4215 43.4254 81.1356 43.5923 80.8018V80.804Z" fill="#E9E8E7"/>
<path id="Vector_4" d="M43.9148 44.3899C43.9148 44.3396 43.9216 44.271 43.9216 44.1909H43.8553V79.9854C43.8553 80.2758 43.7158 80.5502 43.5923 80.804C43.4254 81.1379 43.1533 81.4238 42.808 81.6044C42.0305 82.0092 41.1181 81.8034 40.583 81.1974C40.4 80.9961 40.2628 80.7492 40.192 80.461C38.7604 75.1809 38.4883 71.1174 39.1378 65.1398L37.2512 57.8108C35.4675 66.5416 34.5871 74.1016 33.4209 84.1884C33.4049 84.3233 33.3706 84.4514 33.3226 84.5703C33.1533 85.0002 32.7806 85.3272 32.3187 85.4393C31.4863 85.6428 30.6676 85.0986 30.5259 84.2525C30.503 84.1153 30.4824 83.9735 30.4596 83.8386C29.2865 76.5164 28.6484 69.8139 29.9542 65.2336L29.163 49.7111L34.036 54.3784C34.379 54.694 34.8501 54.8289 35.3075 54.7465C36.0461 54.6116 36.5286 53.9691 36.5286 53.2807C36.5286 53.0475 36.4737 52.812 36.3548 52.5856L36.1901 52.2746L31.7813 48.1241C32.0054 48.1539 32.2478 48.1767 32.5108 48.1904C36.3091 48.3825 37.6971 47.0837 38.5364 46.9785L43.9148 44.3899Z" fill="#E9E8E7"/>
<path id="Vector_5" d="M39.993 19.4299C39.7689 19.4596 39.5493 19.4665 39.339 19.455C38.7467 19.4253 38.2047 19.2744 37.6422 19.2469C35.1496 19.1212 36.014 20.6853 34.0428 21.7944C34.0428 21.3736 34.0268 20.9551 34.0085 20.5389C34.0017 20.3148 33.988 20.0907 33.9788 19.8644C33.9674 19.6014 33.8462 19.2927 33.7319 19.0457C33.4552 18.4306 33.1807 17.4107 33.2128 16.7521C33.2768 15.4898 34.8867 14.941 36.197 15.0073C38.6941 15.1331 38.6346 17.4152 40.6058 17.5159C40.9008 17.5296 41.2027 17.4976 41.4702 17.445C41.4634 17.5639 41.4656 17.6828 41.4611 17.8017C41.429 18.5586 41.0746 19.0182 40.5304 19.2584C40.5052 19.2698 40.4983 19.2995 40.4846 19.327C40.3177 19.3773 40.1553 19.4116 39.9953 19.4322L39.993 19.4299Z" fill="#E9E8E7"/>
<path id="Vector_6" d="M39.9929 19.4306C40.1416 20.6609 40.0364 22.7213 39.1377 23.8166C39.0782 23.8875 39.0096 23.9607 38.941 24.0224C38.6643 24.274 38.3259 24.4546 37.9143 24.5027C37.8342 24.5118 37.7519 24.5164 37.6719 24.5232C37.4775 25.646 36.7732 26.6682 35.5498 26.6065C34.9415 26.5767 34.3012 26.2794 33.7707 25.7649C33.7112 25.7123 33.6564 25.6552 33.6038 25.5934C33.9216 24.9829 33.9788 24.1642 34.0108 23.4713C34.0108 23.4256 34.0154 23.3707 34.0177 23.3273C34.0428 22.8127 34.0497 22.3051 34.0428 21.7928C36.014 20.6861 35.1496 19.1196 37.6422 19.2454C38.207 19.2728 38.7467 19.4238 39.3389 19.4535C39.5493 19.4649 39.7688 19.4604 39.9929 19.4284V19.4306Z" fill="#E9E8E7"/>
<path id="Vector_7" d="M36.3548 52.5859C36.4737 52.8123 36.5286 53.0478 36.5286 53.2811C36.5286 53.9694 36.0461 54.6119 35.3074 54.7469C34.8501 54.8292 34.379 54.6943 34.036 54.3787L27.3381 47.9644C26.6498 47.3058 26.2588 44.9939 26.2633 44.0403C26.2702 42.0303 26.38 40.1597 26.4143 38.1748C27.2489 38.4424 28.1774 38.5887 29.1721 38.6116C29.1767 38.6116 29.1812 38.6116 29.1858 38.6116C29.1927 38.6116 29.2018 38.6116 29.2087 38.6116C29.3322 38.6139 29.4694 38.6253 29.6066 38.6322C29.977 38.6527 30.2926 38.655 30.5693 38.6459L29.8718 46.3271L36.1901 52.2749L36.3548 52.5859Z" fill="#E9E8E7"/>
<path id="Vector_8" d="M33.3225 84.5701C35.0307 86.1411 35.9157 86.5596 35.8654 87.5886C35.8562 87.7601 35.8197 87.9477 35.7488 88.1535C35.4446 88.2244 35.1176 88.2472 34.7792 88.2312C32.7234 88.1283 30.2583 86.539 30.3658 84.4306C30.3749 84.2386 30.4046 84.0396 30.4595 83.8384C30.4824 83.9733 30.503 84.1151 30.5258 84.2523C30.6676 85.0984 31.4863 85.6426 32.3186 85.4391C32.7806 85.3271 33.151 84.9978 33.3225 84.5701Z" fill="#E9E8E7"/>
<path id="Vector_9" d="M39.2316 49.144C38.4609 52.222 37.8092 55.0759 37.2513 57.8108C35.4653 66.5416 34.5872 74.1016 33.4209 84.1885C33.4049 84.3234 33.3706 84.4514 33.3226 84.5704C33.1534 85.0003 32.7807 85.3273 32.3187 85.4393C31.4864 85.6428 30.6677 85.0986 30.5259 84.2525C30.5031 84.1153 30.4825 83.9735 30.4596 83.8386C29.2865 76.5164 28.6485 69.814 29.9542 65.2336L29.163 49.7112" stroke="#5A6C75" stroke-width="1.2" stroke-linecap="round" stroke-linejoin="round"/>
<path id="Vector_10" d="M31.7836 48.1244C32.0077 48.1541 32.2501 48.177 32.5131 48.1907C36.3114 48.3828 37.6995 47.0839 38.5387 46.9787L43.9171 44.3901" stroke="#5A6C75" stroke-width="1.2" stroke-linecap="round" stroke-linejoin="round"/>
<path id="Vector_11" d="M43.8553 44.1909V79.9854C43.8553 80.2758 43.7158 80.5525 43.5923 80.804C43.4277 81.1379 43.1533 81.4238 42.808 81.6044C42.0305 82.0092 41.1203 81.7988 40.583 81.1974C40.4023 80.9939 40.2628 80.7492 40.1919 80.461C38.7604 75.1809 38.4883 71.1174 39.1377 65.1398L37.2512 57.8108" stroke="#5A6C75" stroke-width="1.2" stroke-linecap="round" stroke-linejoin="round"/>
<path id="Vector_12" d="M33.3226 84.5701C35.0308 86.1411 35.9158 86.5596 35.8654 87.5886C35.8563 87.7601 35.8197 87.9477 35.7488 88.1535C35.4447 88.2244 35.1177 88.2472 34.7792 88.2312C32.7235 88.1283 30.2583 86.539 30.3658 84.4306C30.375 84.2386 30.4047 84.0396 30.4596 83.8384" stroke="#5A6C75" stroke-width="1.2" stroke-linecap="round" stroke-linejoin="round"/>
<path id="Vector_13" d="M43.5924 80.8037C43.6152 80.8197 48.2413 84.5448 44.9553 84.3779C43.103 84.2841 40.926 82.9898 40.583 81.1947" stroke="#5A6C75" stroke-width="1.2" stroke-linecap="round" stroke-linejoin="round"/>
<path id="Vector_14" d="M33.7708 25.7646C33.2746 25.9773 32.7692 26.2037 32.2638 26.4392C30.016 27.5117 27.8207 28.9112 27.0272 31.2071C26.6476 32.3002 26.4692 34.9711 26.4143 38.1725C26.38 40.1574 26.2726 42.0257 26.2634 44.0381C26.2588 44.9916 26.6522 47.3035 27.3382 47.9621L34.0361 54.3764C34.3791 54.692 34.8501 54.8269 35.3075 54.7446C36.0461 54.6097 36.5286 53.9671 36.5286 53.2788C36.5286 53.0456 36.4737 52.81 36.3548 52.5836L36.1902 52.2726L29.8719 46.3248L30.9855 33.5007" stroke="#5A6C75" stroke-width="1.2" stroke-linecap="round" stroke-linejoin="round"/>
<path id="Vector_15" d="M39.1378 23.8181C40.2263 23.6763 41.2622 23.8501 42.4582 24.4995C43.1373 24.8677 44.5803 25.8624 45.2 27.0607C46.1421 28.8718 46.4783 30.859 46.5514 32.8942C46.5651 33.2761 46.572 33.6534 46.5674 34.0375C46.5674 34.0375 46.5514 37.191 46.5308 39.5075L52.4124 45.1283C53.0206 45.7091 52.9269 46.7039 52.2226 47.1612C51.7446 47.4722 51.1226 47.4379 50.6836 47.0743L43.9994 41.577" stroke="#5A6C75" stroke-width="1.2" stroke-linecap="round" stroke-linejoin="round"/>
<path id="Vector_16" d="M39.9931 19.4297C40.1417 20.66 40.0365 22.7203 39.1378 23.8157C39.0783 23.8866 39.0097 23.9597 38.9411 24.0215C38.6645 24.273 38.326 24.4537 37.9144 24.5017C37.8344 24.5109 37.752 24.5154 37.672 24.5223" stroke="#5A6C75" stroke-width="1.2" stroke-linecap="round" stroke-linejoin="round"/>
<path id="Vector_17" d="M37.672 24.5228C37.4776 25.6456 36.7733 26.6678 35.5499 26.606C34.9416 26.5763 34.3013 26.279 33.7708 25.7645C33.7113 25.7119 33.6565 25.6547 33.6039 25.593C33.9217 24.9824 33.9789 24.1638 34.0109 23.4709C34.0109 23.4252 34.0155 23.3703 34.0178 23.3268C34.0429 22.8123 34.0475 22.3046 34.0429 21.7924C34.0383 21.3717 34.0269 20.9532 34.0086 20.537C34.0018 20.3129 33.988 20.0888 33.9789 19.8624C33.9674 19.5994 33.8463 19.2907 33.7319 19.0437C33.4552 18.4286 33.1808 17.4087 33.2128 16.7501C33.2768 15.4879 34.8867 14.939 36.197 15.0053C38.6942 15.1311 38.6347 17.4133 40.6059 17.5139C40.9009 17.5276 41.2027 17.4956 41.4703 17.443C41.4634 17.5619 41.4657 17.6808 41.4611 17.7997C41.4291 18.5567 41.0747 19.0163 40.5304 19.2564C40.5053 19.2679 40.4984 19.2976 40.4847 19.325C40.3178 19.3753 40.1554 19.4096 39.9953 19.4302C39.7712 19.4599 39.5517 19.4668 39.3413 19.4554C38.749 19.4256 38.2071 19.2747 37.6445 19.2473C35.152 19.1215 36.0164 20.6856 34.0452 21.7947" stroke="#5A6C75" stroke-width="1.2" stroke-linecap="round" stroke-linejoin="round"/>
<path id="Vector_18" d="M43.9103 44.4911C43.9103 44.4911 43.9126 44.4568 43.9171 44.3905C43.9194 44.3401 43.9217 44.2715 43.924 44.1915C43.9332 43.7845 43.972 42.8172 43.9949 41.5778C44.0361 39.3002 44.0475 36.1056 43.8897 33.8005C43.7433 31.6624 43.4529 29.785 42.9087 29.0029" stroke="#5A6C75" stroke-width="1.2" stroke-linecap="round" stroke-linejoin="round"/>
<path id="Vector_19" d="M30.5694 38.6478C30.2904 38.657 29.9748 38.6524 29.6066 38.6341C29.4694 38.6272 29.3322 38.6181 29.2087 38.6135C29.2019 38.6135 29.1927 38.6135 29.1859 38.6135C29.1813 38.6135 29.1767 38.6135 29.1722 38.6135C28.1774 38.5884 27.249 38.4443 26.4143 38.1768" stroke="#5A6C75" stroke-width="1.2" stroke-linecap="round" stroke-linejoin="round"/>
<path id="Vector_20" d="M46.0255 32.9062C45.4584 33.3407 44.7472 33.6472 43.8874 33.8027" stroke="#5A6C75" stroke-width="1.2" stroke-linecap="round" stroke-linejoin="round"/>
<path id="Vector_21" d="M113 56.0454V64.3669L66.1626 91.41V83.0839L113 56.0454Z" fill="#E9E8E7"/>
<path id="Vector_22" d="M59.5859 67.9044C60.6081 67.6094 61.5571 67.2023 62.3826 66.6855C65.8173 64.5474 65.8653 61.1699 62.4901 59.002C58.6712 56.5438 52.1174 56.466 48.1224 58.7711C46.6086 59.6446 45.6916 60.7331 45.3692 61.8673C44.8935 63.5435 43.629 65.1077 41.5457 66.3105L39.3253 67.5911L20 56.434L43.3934 42.9308L43.6541 43.0817C45.6962 44.2594 47.1231 45.7732 47.5142 47.4242C47.816 48.6797 48.8405 49.8871 50.5944 50.8223C54.2967 52.805 60.1439 52.8324 63.9033 50.8841C64.1091 50.7789 64.3058 50.6668 64.4933 50.5525C68.1635 48.3161 68.0995 44.7808 64.3035 42.5878C62.7874 41.7142 60.9031 41.1837 58.9365 40.9985C56.0369 40.7218 53.3248 39.9923 51.2484 38.7941L50.9054 38.5951L66.8395 29.3955L86.1648 40.5525L88.8677 38.9907C90.9487 37.7902 92.2132 36.2237 92.6912 34.5476C93.0113 33.4156 93.9283 32.3271 95.4444 31.4513C99.4371 29.1463 105.993 29.224 109.812 31.6823C111.479 32.7547 112.311 34.1222 112.311 35.4874C112.311 36.8526 111.442 38.2841 109.705 39.3657C108.086 40.3765 105.998 40.9687 103.823 41.1425C100.96 41.3712 98.3417 42.1922 96.2974 43.3744L93.6745 44.8882L113 56.0453L66.1626 83.0861L46.8373 71.929L48.9777 70.6942C51.0197 69.5142 53.6404 68.6933 56.5034 68.4623C57.5667 68.3754 58.6095 68.1925 59.5882 67.9066L59.5859 67.9044Z" fill="#E9E8E7"/>
<path id="Vector_23" d="M112.311 35.4878V43.8115C112.311 45.211 111.442 46.6082 109.704 47.6899C108.3 48.568 104.287 49.4095 101.918 49.4095L101.815 49.5879L93.6744 44.8886L96.2973 43.3748C98.3393 42.1925 100.96 41.3716 103.823 41.1429C105.998 40.9691 108.085 40.3769 109.704 39.3661C111.442 38.2845 112.311 36.8873 112.311 35.4878Z" fill="#E9E8E7"/>
<path id="Vector_24" d="M66.1626 83.0848V91.4108L46.8372 80.2538V71.9277L66.1626 83.0848Z" fill="#E9E8E7"/>
<path id="Vector_25" d="M64.3057 42.5857C68.1017 44.7787 68.1657 48.3141 64.4955 50.5505L64.4704 50.331C63.5717 50.0703 59.8305 50.1137 58.8564 50.02C55.9568 49.7456 53.327 48.3141 51.2507 47.1181L50.9077 46.9191V38.5977L51.2507 38.7966C53.327 39.9971 56.0391 40.7266 58.9387 41.001C60.9053 41.1863 62.7919 41.7168 64.3057 42.5903V42.5857Z" fill="#E9E8E7"/>
<path id="Vector_26" d="M62.4923 59.0021C65.8676 61.1722 65.8196 64.5497 62.3849 66.6855C61.5593 67.2024 60.6081 67.6094 59.5882 67.9044C56.8006 65.1694 51.3536 66.2122 48.2551 68.0027C46.7412 68.8785 45.6962 70.9298 45.3737 72.0617C44.8981 73.7379 43.6335 73.4315 41.5503 74.632L39.3299 75.9149V67.5911L41.5503 66.3105C43.6312 65.11 44.8958 63.5436 45.3737 61.8674C45.6962 60.7331 46.6132 59.6447 48.127 58.7711C52.1219 56.4661 58.6758 56.5415 62.4946 59.0021H62.4923Z" fill="#E9E8E7"/>
<path id="Vector_27" d="M39.3276 67.5921V75.9159L20.0023 64.7588V56.4351L39.3276 67.5921Z" fill="#E9E8E7"/>
<path id="Vector_28" d="M59.5859 67.9044C60.6081 67.6071 61.5571 67.2023 62.3826 66.6855C65.8173 64.5474 65.8653 61.1699 62.4901 59.002C58.6712 56.5438 52.1174 56.466 48.1224 58.7711C46.6086 59.6446 45.6916 60.7331 45.3692 61.8673C44.8935 63.5435 43.629 65.1077 41.5457 66.3105L39.3253 67.5911L20 56.434L43.3934 42.9308L43.6541 43.0817C45.6962 44.2594 47.1231 45.7732 47.5142 47.4242C47.816 48.6797 48.8405 49.8871 50.5944 50.8223C54.2967 52.805 60.1439 52.8324 63.9033 50.8841C64.1091 50.7789 64.3058 50.6668 64.4933 50.5525C68.1658 48.3206 68.0995 44.7808 64.3035 42.5878C62.7874 41.7142 60.9031 41.1837 58.9365 40.9985C56.0369 40.7218 53.3248 39.9923 51.2484 38.7941L50.9054 38.5951L66.8395 29.3955L86.1648 40.5525L88.8677 38.9907C90.9487 37.7902 92.2132 36.2237 92.6912 34.5476C93.0113 33.4156 93.9283 32.3271 95.4444 31.4513C99.4371 29.1463 105.993 29.224 109.812 31.6823C111.479 32.7547 112.311 34.1222 112.311 35.4874C112.311 36.8526 111.442 38.2841 109.705 39.3657C108.086 40.3765 105.998 40.9687 103.823 41.1425C100.96 41.3712 98.3417 42.1922 96.2974 43.3744L93.6745 44.8882L113 56.0453L66.1626 83.0861L46.8373 71.929L48.9777 70.6942C51.0197 69.5142 53.6404 68.6933 56.5034 68.4623C57.5667 68.3754 58.6072 68.1925 59.5882 67.9066L59.5859 67.9044Z" stroke="#5A6C75" stroke-width="1.2" stroke-linecap="round" stroke-linejoin="round"/>
<path id="Vector_29" d="M112.311 35.4878V43.8115C112.311 45.211 111.442 46.6082 109.705 47.6899C108.3 48.568 104.287 49.4095 101.918 49.4095" stroke="#5A6C75" stroke-width="1.2" stroke-linecap="round" stroke-linejoin="round"/>
<path id="Vector_30" d="M113 56.0454V64.3669L66.1626 91.41L46.8372 80.2529V71.9269" stroke="#5A6C75" stroke-width="1.2" stroke-linecap="round" stroke-linejoin="round"/>
<path id="Vector_31" d="M39.3276 67.5913V75.9151" stroke="#5A6C75" stroke-width="1.2" stroke-linecap="round" stroke-linejoin="round"/>
<path id="Vector_32" d="M20.0023 56.4351V64.7588L39.3276 75.9159L41.548 74.633C43.6289 73.4325 44.8935 73.7366 45.3714 72.0627C45.6939 70.9308 46.7389 68.8795 48.2527 68.0037C51.3536 66.2132 56.7983 65.1704 59.5859 67.9054" stroke="#5A6C75" stroke-width="1.2" stroke-linecap="round" stroke-linejoin="round"/>
<path id="Vector_33" d="M50.9054 38.5957V46.9172L51.2484 47.1161C53.3247 48.3144 55.9545 49.7459 58.8541 50.018C59.8283 50.1118 63.5671 50.0706 64.4681 50.329" stroke="#5A6C75" stroke-width="1.2" stroke-linecap="round" stroke-linejoin="round"/>
<path id="Vector_34" d="M66.1626 83.084V91.41" stroke="#5A6C75" stroke-width="1.2" stroke-linecap="round" stroke-linejoin="round"/>
<path id="Vector_35" d="M106.59 112.087L107.077 114.079C107.18 114.504 107.015 114.95 106.656 115.204L106.327 115.437C105.906 115.734 105.38 115.833 104.882 115.709L100.535 114.609C100.141 114.509 100.05 113.989 100.391 113.765L100.905 113.422C101.273 113.178 101.703 113.045 102.142 113.034L102.474 113.027C103.107 113.013 103.713 112.78 104.189 112.37C104.37 113.047 105.094 113.443 105.771 113.205C106.249 113.038 106.574 112.592 106.588 112.087H106.59Z" fill="#E9E8E7"/>
<path id="Vector_36" d="M104.653 94.261C106.567 98.0296 106.794 104.437 106.59 112.086C106.576 112.592 106.252 113.035 105.774 113.204C105.097 113.442 104.37 113.049 104.191 112.37C104.182 112.331 104.173 112.297 104.168 112.258C103.027 105.281 101.221 98.5189 99.8281 94.7024C101.694 93.8677 103.347 92.722 104.381 91.7959L104.422 93.3463C104.429 93.6665 104.509 93.9775 104.653 94.2633V94.261Z" fill="#E9E8E7"/>
<path id="Vector_37" d="M97.1503 68.9814C96.805 69.0363 96.4574 69.0683 96.119 69.0683C95.1288 69.0683 94.2164 68.8099 93.5693 68.1719L94.1295 61.8033C94.4794 60.772 95.2386 59.9328 96.2333 59.4845L97.7586 58.7939C97.3401 60.7331 96.7959 62.3316 96.7959 62.3316C100.212 63.2668 102.588 63.5778 104.69 62.9352C104.061 66.5071 103.441 70.214 103.341 71.4991C102.499 72.862 99.0369 75.6107 95.7943 74.6434L95.7074 74.5725C95.8515 74.3919 95.9864 74.2226 96.1121 74.0626C96.5695 73.468 96.8439 72.7546 96.9056 72.0091L97.1526 68.9814H97.1503Z" fill="#E9E8E7"/>
<path id="Vector_38" d="M97.5482 52.5242C98.2502 53.2971 98.3257 54.8521 98.1427 56.5054C96.901 56.0366 95.6067 54.9344 96.5397 51.3442L96.7249 51.2573C96.9147 51.6895 97.18 52.1217 97.5482 52.5242Z" fill="#E9E8E7"/>
<path id="Vector_39" d="M98.0239 95.3783L97.8158 97.1413C97.7792 97.4569 97.8112 97.7771 97.9164 98.0812C99.2793 102.081 98.5842 108.454 97.3219 116C97.2944 116.158 97.2373 116.307 97.1572 116.437C97.1115 116.512 97.0566 116.583 96.9949 116.645C96.8257 116.817 96.6061 116.942 96.3569 116.99C95.7189 117.118 95.1243 116.723 94.9482 116.13C94.9185 116.034 94.9025 115.934 94.9002 115.829C94.7356 108.646 93.894 101.591 93.0365 97.649L92.785 95.376C94.3948 96.046 96.2425 95.9088 98.0239 95.376V95.3783Z" fill="#E9E8E7"/>
<path id="Vector_40" d="M96.9948 116.646C97.0565 116.584 97.1114 116.513 97.1572 116.438L97.4156 118.624C97.4704 119.093 97.2326 119.546 96.8187 119.77L96.4345 119.976C95.9498 120.239 95.3735 120.273 94.8567 120.074L90.3678 118.327C89.9608 118.169 89.9333 117.604 90.3243 117.408L90.9212 117.113C91.3442 116.9 91.8199 116.813 92.291 116.861L92.6477 116.898C93.4069 116.975 94.1661 116.754 94.7652 116.28L94.9482 116.134C95.1151 116.728 95.7188 117.122 96.3568 116.994C96.606 116.946 96.8256 116.82 96.9948 116.648V116.646Z" fill="#E9E8E7"/>
<path id="Vector_41" d="M97.1504 68.982L96.9034 72.0097C96.8416 72.7552 96.5672 73.4686 96.1099 74.0632C95.9864 74.2233 95.8492 74.3925 95.7051 74.5731C94.8888 75.577 93.7614 76.8439 92.7781 77.9186C91.685 79.1077 90.7703 80.0567 90.6468 80.1368C87.235 82.4075 88.3509 82.9266 87.0086 82.9266C86.4689 82.9266 86.1259 82.7185 85.7029 82.6316L85.2661 82.5356L92.8375 72.8535C93.0731 72.5516 93.2171 72.1881 93.2514 71.8085L93.5693 68.1748C94.2142 68.8128 95.1289 69.0712 96.119 69.0712C96.4575 69.0712 96.8051 69.0415 97.1504 68.9843V68.982Z" fill="#E9E8E7"/>
<path id="Vector_42" d="M97.1572 116.438L97.4156 118.624C97.4704 119.093 97.2326 119.546 96.8187 119.77L96.4345 119.976C95.9498 120.239 95.3735 120.273 94.8567 120.074L90.3678 118.327C89.9608 118.169 89.9333 117.604 90.3243 117.408L90.9212 117.113C91.3442 116.9 91.8199 116.813 92.291 116.861L92.6477 116.898C93.4069 116.975 94.1661 116.754 94.7652 116.28L94.9482 116.134" stroke="#5A6C75" stroke-width="1.2" stroke-linecap="round" stroke-linejoin="round"/>
<path id="Vector_43" d="M98.0239 95.3778C98.6368 95.1949 99.2428 94.9616 99.8282 94.7009C101.692 93.8663 103.347 92.7183 104.381 91.7945C104.843 91.3829 105.181 91.017 105.358 90.7403C103.645 86.4115 106.291 82.1421 106.291 78.4971C106.291 74.852 103.322 73.5782 103.322 71.7969C103.322 71.7214 103.329 71.6185 103.338 71.495C103.441 70.2099 104.061 66.5031 104.688 62.9312" stroke="#5A6C75" stroke-width="1.2" stroke-linecap="round" stroke-linejoin="round"/>
<path id="Vector_44" d="M92.8215 77.9551C91.9823 85.1721 91.996 91.2342 91.3717 94.518C91.813 94.8907 92.2887 95.1743 92.7849 95.3778C94.3971 96.0432 96.2425 95.9106 98.0239 95.3778" stroke="#5A6C75" stroke-width="1.2" stroke-linecap="round" stroke-linejoin="round"/>
<path id="Vector_45" d="M96.5399 51.3418C95.6092 54.932 96.9012 56.0365 98.1429 56.503" stroke="#5A6C75" stroke-width="1.2" stroke-linecap="round" stroke-linejoin="round"/>
<path id="Vector_46" d="M96.7251 51.2574C96.0848 49.7984 97.5254 48.2777 99.0255 48.8151C100.622 49.3845 102.268 50.0957 102.984 52.3756C104.425 56.9628 105.705 58.1016 108.296 60.7268C107.084 61.8404 105.936 62.5539 104.69 62.9335C102.586 63.5761 100.212 63.2651 96.796 62.3298C96.796 62.3298 97.3402 60.7313 97.7587 58.7922C97.9188 58.0536 98.0582 57.2692 98.1429 56.5031C98.3258 54.8521 98.2503 53.2971 97.5483 52.5219C97.1801 52.1172 96.9149 51.6873 96.7251 51.2551V51.2574Z" fill="#E9E8E7" stroke="#5A6C75" stroke-width="1.2" stroke-linecap="round" stroke-linejoin="round"/>
<path id="Vector_47" d="M95.7943 74.6438C99.0369 75.6111 102.499 72.8624 103.341 71.4995" stroke="#5A6C75" stroke-width="1.2" stroke-linecap="round" stroke-linejoin="round"/>
<path id="Vector_48" d="M92.785 95.3779L93.0365 97.651C93.894 101.593 94.7356 108.65 94.9002 115.831C94.9025 115.936 94.9185 116.036 94.9482 116.132C95.1243 116.725 95.7189 117.12 96.3569 116.992C96.6061 116.944 96.8257 116.818 96.9949 116.647C97.0566 116.585 97.1115 116.514 97.1572 116.439C97.2396 116.306 97.2967 116.16 97.3219 116.002C98.5819 108.456 99.2793 102.085 97.9164 98.0832C97.8135 97.779 97.7815 97.4589 97.8158 97.1433L98.0239 95.3802" stroke="#5A6C75" stroke-width="1.2" stroke-linecap="round" stroke-linejoin="round"/>
<path id="Vector_49" d="M99.8281 94.7004C101.221 98.5193 103.027 105.281 104.168 112.256C104.175 112.295 104.182 112.329 104.191 112.368C104.37 113.045 105.097 113.44 105.774 113.202C106.252 113.036 106.576 112.59 106.59 112.084C106.798 104.435 106.567 98.0276 104.653 94.2591C104.509 93.9732 104.431 93.6622 104.422 93.3421L104.383 91.7939" stroke="#5A6C75" stroke-width="1.2" stroke-linecap="round" stroke-linejoin="round"/>
<path id="Vector_50" d="M106.59 112.087L107.077 114.079C107.18 114.504 107.015 114.95 106.656 115.204L106.327 115.437C105.906 115.734 105.38 115.833 104.882 115.709L100.535 114.609C100.141 114.509 100.05 113.989 100.391 113.765L100.905 113.422C101.273 113.178 101.703 113.045 102.142 113.034L102.474 113.027C103.107 113.013 103.713 112.78 104.189 112.37" stroke="#5A6C75" stroke-width="1.2" stroke-linecap="round" stroke-linejoin="round"/>
<path id="Vector_51" d="M97.4179 65.6976L96.9034 72.0091C96.8416 72.7546 96.5672 73.468 96.1099 74.0626C95.9864 74.2226 95.8515 74.3919 95.7051 74.5725C94.8933 75.5787 93.7637 76.8433 92.7781 77.918C91.685 79.1094 90.7703 80.0561 90.6468 80.1362C87.235 82.4069 88.3509 82.926 87.0086 82.926C86.4689 82.926 86.1259 82.7179 85.7029 82.631L85.2661 82.535L92.8375 72.8529C93.0731 72.551 93.2171 72.1874 93.2514 71.8078L94.1296 61.8033C94.4794 60.772 95.2386 59.9328 96.2334 59.4845L97.7586 58.7939" stroke="#5A6C75" stroke-width="1.2" stroke-linecap="round" stroke-linejoin="round"/>
<path id="Vector_52" d="M93.5693 68.1729C94.2141 68.8109 95.1288 69.0693 96.119 69.0693C96.4574 69.0693 96.805 69.0395 97.1503 68.9824" stroke="#5A6C75" stroke-width="1.2" stroke-linecap="round" stroke-linejoin="round"/>
</g>
</svg>
