<svg width="38" height="35" viewBox="0 0 38 35" fill="none" xmlns="http://www.w3.org/2000/svg">
<path d="M14.8027 0.5V12.0312C14.8027 18.5287 14.0443 23.1146 12.5918 25.8691C10.6124 29.5824 7.561 32.4132 3.41309 34.3613L0.731445 30.0518C3.19206 28.9375 5.05515 27.2661 6.29492 25.0342L6.29395 25.0332C7.66475 22.6042 8.40579 19.3332 8.55371 15.2578L8.57227 14.7393H1.67188V0.5H14.8027ZM37.5 0.5V12.0312C37.5 18.5288 36.7416 23.1147 35.2891 25.8691C33.3098 29.5822 30.2589 32.4133 26.1113 34.3613L23.4287 30.0518C25.8894 28.9375 27.7524 27.2661 28.9922 25.0342L28.9912 25.0332C30.3621 22.6042 31.1031 19.3333 31.251 15.2578L31.2695 14.7393H24.3691V0.5H37.5Z" stroke="#5A6C75"/>
</svg>
