<svg width="136" height="136" viewBox="0 0 136 136" fill="none" xmlns="http://www.w3.org/2000/svg">
  <!-- Group: Chart/design icon -->
  <!-- Fill layer: inner container at (17, 19) 103x98, group inset [0.65%_0.61%_0.65%_0.6%] -->
  <!-- x=17+0.618=17.618, y=19+0.637=19.637, w=101.78, h=96.727 -->
  <svg x="17.618" y="19.637" width="101.78" height="96.727" viewBox="0 0 101.749 96.733" preserveAspectRatio="none" overflow="visible">
    <g>
      <path d="M33.7925 54.0436C35.1522 53.2453 35.9989 51.5387 35.9989 49.1056C35.9989 44.2436 32.6288 38.3256 28.4663 35.8967C26.385 34.6802 24.5039 34.5661 23.1442 35.3645L27.1525 33.0159C28.5122 32.2217 30.3974 32.34 32.4745 33.5523C36.6329 35.9854 40.0071 41.8992 40.0071 46.7612C40.0071 49.1943 39.1646 50.9009 37.8007 51.6992L33.7925 54.0436Z" fill="#E9E8E7"/>
      <path d="M70.1001 25.0153V59.1717L64.1983 62.6228V77.0145L58.7386 80.2079V31.6599L70.1001 25.0153Z" fill="#E9E8E7"/>
      <path d="M70.1001 25.0153L58.7386 31.6599L47.3771 25.0153L58.7386 18.375L70.1001 25.0153Z" fill="#E9E8E7"/>
      <path d="M48.4699 2.44155C48.4699 1.08983 49.5459 0 50.8765 0C52.207 0 53.2872 1.08983 53.2872 2.44155C53.2872 3.79328 52.207 4.87888 50.8765 4.87888C49.5459 4.87888 48.4699 3.78905 48.4699 2.44155Z" fill="#E9E8E7"/>
      <path d="M35.9989 49.1056C35.9989 51.5387 35.1522 53.2453 33.7925 54.0436C32.4328 54.842 30.5476 54.7237 28.4705 53.5114C27.5362 52.9622 26.6436 52.2441 25.8219 51.3951C22.9649 48.472 20.9378 44.0747 20.9378 40.3025C20.9378 37.8652 21.7804 36.1586 23.1442 35.3645C24.504 34.5661 26.3892 34.6844 28.4663 35.8967C32.6247 38.3298 35.9989 44.2436 35.9989 49.1056Z" fill="#E9E8E7"/>
      <path d="M58.7386 31.6599V80.2079L47.3771 73.5634V25.0153L58.7386 31.6599Z" fill="#E9E8E7"/>
      <path d="M99.3421 78.6323C100.673 78.6323 101.749 79.7222 101.749 81.0697C101.749 82.4172 100.673 83.507 99.3421 83.507C98.0116 83.507 96.9314 82.4172 96.9314 81.0697C96.9314 79.7222 98.0075 78.6323 99.3421 78.6323Z" fill="#E9E8E7"/>
      <path d="M86.9129 62.6228L75.5597 69.2674L64.1983 62.6228L75.5597 55.9783L86.9129 62.6228Z" fill="#E9E8E7"/>
      <path d="M75.5598 69.2674V90.2656L64.1983 83.621V62.6228L75.5598 69.2674Z" fill="#E9E8E7"/>
      <path d="M2.41077 78.6323C3.74128 78.6323 4.81737 79.7222 4.81737 81.0697C4.81737 82.4172 3.74128 83.507 2.41077 83.507C1.08026 83.507 0 82.4172 0 81.0697C0 79.7222 1.08026 78.6323 2.41077 78.6323Z" fill="#E9E8E7"/>
      <path d="M30.4725 61.9639V96.7328L19.111 90.0924V55.3193L30.4725 61.9639Z" fill="#E9E8E7"/>
      <path d="M86.9129 73.8041V83.621L75.5598 90.2656V69.2674L86.9129 62.6228V73.8041Z" fill="#E9E8E7"/>
      <path d="M33.7925 54.0436L36.7246 52.3328L41.8381 55.3193L30.4767 61.9639L19.1152 55.3193L25.8178 51.3993H25.8219C26.6436 52.2441 27.5362 52.9622 28.4705 53.5114C30.5517 54.7279 32.4328 54.842 33.7925 54.0436Z" fill="#E9E8E7"/>
      <path d="M41.834 58.0185V90.0924L30.4725 96.7328V61.9639L41.834 55.3193V58.0185Z" fill="#E9E8E7"/>
    </g>
  </svg>
  <!-- Stroke layer: inner inset adjustment -0.62% top/bottom of 98, -0.59% left/right of 103 -->
  <!-- delta_x = -0.0059*103 = -0.607, delta_y = -0.0062*98 = -0.608 -->
  <!-- x=17.618-0.607=17.011, y=19.637-0.608=19.029, w=101.78+2*0.607=102.994, h=96.727+2*0.608=97.943 -->
  <svg x="17.011" y="19.029" width="102.994" height="97.943" viewBox="0 0 102.953 97.9328" preserveAspectRatio="none" overflow="visible">
    <g>
      <path d="M5.10038 80.4489L19.7152 71.9035" stroke="#5A6C75" stroke-width="1.2" stroke-linecap="round" stroke-linejoin="round"/>
      <path d="M42.4381 58.6185L47.9813 55.3702" stroke="#5A6C75" stroke-width="1.2" stroke-linecap="round" stroke-linejoin="round"/>
      <path d="M51.4765 5.47465V23.5709" stroke="#5A6C75" stroke-width="1.2" stroke-linecap="round" stroke-linejoin="round"/>
      <path d="M47.9813 25.6153V74.1634L59.3427 80.8079L64.8024 77.6145" stroke="#5A6C75" stroke-width="1.2" stroke-linecap="round" stroke-linejoin="round"/>
      <path d="M87.5171 74.4041L97.8567 80.4489" stroke="#5A6C75" stroke-width="1.2" stroke-linecap="round" stroke-linejoin="round"/>
      <path d="M102.353 81.6697C102.353 80.3222 101.277 79.2323 99.9463 79.2323C98.6158 79.2323 97.5355 80.3222 97.5355 81.6697C97.5355 83.0172 98.6116 84.107 99.9463 84.107C101.281 84.107 102.353 83.0172 102.353 81.6697Z" stroke="#5A6C75" stroke-width="1.2" stroke-linecap="round" stroke-linejoin="round"/>
      <path d="M5.41737 81.6697C5.41737 80.3222 4.34128 79.2323 3.01077 79.2323C1.68026 79.2323 0.6 80.3222 0.6 81.6697C0.6 83.0172 1.68026 84.107 3.01077 84.107C4.34128 84.107 5.41737 83.0172 5.41737 81.6697Z" stroke="#5A6C75" stroke-width="1.2" stroke-linecap="round" stroke-linejoin="round"/>
      <path d="M53.8872 3.04155C53.8872 1.68983 52.807 0.6 51.4765 0.6C50.1459 0.6 49.0699 1.68983 49.0699 3.04155C49.0699 4.39328 50.1459 5.47888 51.4765 5.47888C52.807 5.47888 53.8872 4.38905 53.8872 3.04155Z" stroke="#5A6C75" stroke-width="1.2" stroke-linecap="round" stroke-linejoin="round"/>
      <path d="M47.9813 25.6153L59.3427 18.975L70.7042 25.6153L59.3427 32.2599L47.9813 25.6153Z" stroke="#5A6C75" stroke-width="1.2" stroke-linecap="round" stroke-linejoin="round"/>
      <path d="M59.3427 32.2599V80.8079" stroke="#5A6C75" stroke-width="1.2" stroke-linecap="round" stroke-linejoin="round"/>
      <path d="M70.7042 59.7717V25.6153" stroke="#5A6C75" stroke-width="1.2" stroke-linecap="round" stroke-linejoin="round"/>
      <path d="M37.3288 52.9328L42.4381 55.9193L31.0767 62.5639L19.7152 55.9193L26.4178 51.9993" stroke="#5A6C75" stroke-width="1.2" stroke-linecap="round" stroke-linejoin="round"/>
      <path d="M31.0767 62.5639V97.3328" stroke="#5A6C75" stroke-width="1.2" stroke-linecap="round" stroke-linejoin="round"/>
      <path d="M19.7152 55.9193V90.6924L31.0767 97.3328L42.4381 90.6924V55.9193" stroke="#5A6C75" stroke-width="1.2" stroke-linecap="round" stroke-linejoin="round"/>
      <path d="M64.8024 63.2228L76.1639 56.5783L87.5171 63.2228L76.1639 69.8674L64.8024 63.2228Z" stroke="#5A6C75" stroke-width="1.2" stroke-linecap="round" stroke-linejoin="round"/>
      <path d="M76.1639 69.8674V90.8656" stroke="#5A6C75" stroke-width="1.2" stroke-linecap="round" stroke-linejoin="round"/>
      <path d="M64.8024 63.2228V84.221L76.1639 90.8656L87.5171 84.221V63.2228" stroke="#5A6C75" stroke-width="1.2" stroke-linecap="round" stroke-linejoin="round"/>
      <path d="M23.7484 35.9645C25.1123 35.1703 26.9934 35.2844 29.0705 36.4967C33.2288 38.9298 36.6031 44.8436 36.6031 49.7056C36.6031 52.1387 35.7564 53.8453 34.3967 54.6436C33.037 55.442 31.1517 55.3237 29.0746 54.1114C28.1404 53.5622 27.2478 52.8441 26.4261 51.9951C23.5774 49.0635 21.542 44.6747 21.542 40.9025C21.542 38.4652 22.3845 36.7628 23.7484 35.9645Z" stroke="#5A6C75" stroke-width="1.2" stroke-linecap="round" stroke-linejoin="round"/>
      <path d="M23.7484 35.9645L27.7566 33.6159C29.1163 32.8217 31.0016 32.94 33.0787 34.1523C37.2371 36.5854 40.6113 42.4992 40.6113 47.3612C40.6113 49.7943 39.7688 51.5009 38.4049 52.2992" stroke="#5A6C75" stroke-width="1.2" stroke-linecap="round" stroke-linejoin="round"/>
      <path d="M34.3967 54.6436L38.4049 52.2992" stroke="#5A6C75" stroke-width="1.2" stroke-linecap="round" stroke-linejoin="round"/>
      <path d="M25.5753 42.7822L28.0778 47.1796L32.8284 44.4001" stroke="#5A6C75" stroke-width="1.2" stroke-linecap="round" stroke-linejoin="round"/>
    </g>
  </svg>
</svg>
