<svg width="136" height="136" viewBox="0 0 136 136" fill="none" xmlns="http://www.w3.org/2000/svg">
<g id="Frame 1000002447">
<rect width="136" height="136" fill="#E9E8E7"/>
<path id="Vector" d="M59.1776 108.091V89.3139M41.8829 106.811V88.1509" stroke="#5A6C75" stroke-width="1.2" stroke-linecap="round" stroke-linejoin="round"/>
<path id="Ellipse 5" d="M103.926 46.3807C106.518 51.9324 105.019 58.879 100.263 65.6929C95.5169 72.4922 87.592 79.0487 77.5997 83.7141C67.6073 88.3795 57.4926 90.2456 49.2326 89.5188C40.9549 88.7903 34.667 85.4794 32.0748 79.9277C29.4826 74.3759 30.9811 67.4287 35.7374 60.6146C40.4834 53.8154 48.4083 47.2588 58.4006 42.5934C68.393 37.9281 78.5077 36.0619 86.7677 36.7888C95.0456 37.5172 101.334 40.8289 103.926 46.3807Z" fill="#E9E8E7" stroke="#5A6C75" stroke-width="1.2"/>
<path id="Ellipse 4" d="M103.926 46.3807C106.518 51.9324 105.019 58.879 100.263 65.6929C95.5169 72.4922 87.592 79.0487 77.5997 83.7141C67.6073 88.3795 57.4926 90.2456 49.2327 89.5188C40.9549 88.7903 34.667 85.4794 32.0748 79.9277C29.4827 74.3759 30.9811 67.4287 35.7374 60.6146C40.4834 53.8154 48.4083 47.2588 58.4006 42.5934C68.393 37.9281 78.5077 36.0619 86.7677 36.7888C95.0456 37.5172 101.334 40.8289 103.926 46.3807Z" fill="#E9E8E7" stroke="#5A6C75" stroke-width="1.2"/>
<path id="Vector_2" d="M72.0801 50.1419L64.8954 54.2879L55.3827 48.7958L59.8112 46.2378C61.1981 47.074 62.011 46.969 62.649 46.0979C62.7568 45.9522 62.7481 45.7483 62.6286 45.6084C62.4218 45.3724 62.2411 45.1452 62.0809 44.9267L62.5675 44.644L72.0801 50.1361V50.1419Z" fill="#E9E8E7"/>
<path id="Vector_3" d="M62.6286 45.6151C62.748 45.755 62.7568 45.956 62.649 46.1046C62.008 46.9757 61.198 47.0806 59.8112 46.2444C59.5315 46.0754 59.2256 45.8657 58.8934 45.618L57.6464 46.7397C57.559 46.8184 57.4425 46.865 57.323 46.865H57.2939C57.0521 46.865 56.8481 46.6873 56.8161 46.4455L56.7928 46.2678C56.7928 46.2678 56.7782 46.2881 56.7724 46.2969L56.1256 46.6698C55.9915 46.699 55.8459 46.7193 55.6914 46.7222C53.8967 45.5044 54.9689 42.7511 56.0352 42.1626C56.9268 42.4365 58.3282 42.7249 60.5512 43.1037C60.828 43.1503 61.0727 43.3222 61.2068 43.5698C61.2301 43.6106 61.2534 43.6543 61.2767 43.6951C61.5069 44.0942 61.7574 44.5021 62.0808 44.9363C62.244 45.1548 62.4246 45.382 62.6286 45.618V45.6151Z" fill="#E9E8E7"/>
<path id="Vector_4" d="M56.7933 46.2642V46.279L56.7725 46.2939C56.7814 46.285 56.7873 46.2731 56.7933 46.2642Z" fill="#E9E8E7"/>
<path id="Vector_5" d="M56.1227 46.6664L56.7695 46.2935C56.6238 46.4828 56.3995 46.6023 56.1227 46.6664Z" fill="#E9E8E7"/>
<path id="Vector_6" d="M52.7662 45.9879C52.772 46.7862 52.8391 47.6166 53.0226 48.4557L44.9754 53.0998C45.5931 53.4232 46.237 53.7612 46.9246 54.1254C47.0674 54.2011 47.2101 54.2681 47.3587 54.3293C45.9078 53.8894 44.1684 57.205 46.103 58.6093C43.9761 57.9101 41.9017 57.1555 39.6378 56.1765C39.0173 55.9056 38.3821 55.62 37.7266 55.3141C36.5145 54.746 35.7366 53.531 35.7221 52.1908C35.6725 46.7658 35.8736 42.6519 36.4592 37.7193C36.6194 36.3616 37.2895 35.1146 38.3326 34.2318L40.9956 31.9796L45.0628 36.1547L46.5866 33.6899C46.7614 33.7219 46.9421 33.754 47.1256 33.7831C47.1198 32.9498 47.1577 32.2681 47.28 31.5572C47.3529 31.1347 47.4578 30.7006 47.5976 30.2227C48.1599 30.2227 48.6232 30.0742 48.999 29.8003L49.7391 29.9663C50.9773 30.2431 51.9475 31.2075 52.2301 32.4458C52.9847 35.7585 53.6578 38.2029 54.3861 40.895C54.5289 41.4253 54.8028 41.7808 56.0235 42.1595C54.9572 42.7481 53.8879 45.5013 55.6798 46.7192C54.7882 46.7541 53.6082 46.4045 52.7546 45.9879H52.7662Z" fill="#E9E8E7"/>
<path id="Vector_7" d="M52.1514 56.0824C52.4719 56.3679 52.8594 56.6214 53.2935 56.8778C53.5791 57.0468 53.7655 57.3469 53.7801 57.679C53.5558 58.894 52.5302 60.6887 51.1171 60.6887C50.1702 60.6887 48.8504 59.6777 47.8889 59.2728C47.5976 59.1242 47.2917 58.996 46.9799 58.8969C46.6856 58.8037 46.3943 58.7075 46.1029 58.6114C44.1684 57.2071 45.9077 53.8914 47.3587 54.3314C48.0259 54.5994 48.7426 54.7102 49.4652 54.649L50.9248 54.5266C51.088 54.512 51.2366 54.6169 51.2803 54.7742C51.4231 55.2958 51.729 55.7124 52.1485 56.0824H52.1514Z" fill="#E9E8E7"/>
<path id="Vector_8" d="M47.6327 19.3112C49.3896 20.0454 51.0503 21.4322 50.118 22.8569C50.0947 22.6705 50.0684 22.484 50.0422 22.2946C49.9956 21.9741 49.7887 21.6944 49.4945 21.5604C47.4259 20.6368 46.0157 21.4672 45.0135 25.2373C43.0352 25.1324 42.6215 26.3124 43.1779 28.3344C43.1838 29.4561 42.8866 29.998 42.3126 30.8721L38.5163 34.0828C37.5169 33.0397 37.7209 31.3965 39.5273 28.4305C38.8921 27.8944 39.3146 26.0094 40.7714 26.0793C38.6416 22.4782 42.4787 17.1581 47.6327 19.3112Z" fill="#E9E8E7"/>
<path id="Vector_9" d="M47.6064 30.2224C47.4636 30.7003 47.3617 31.1344 47.2888 31.5569C47.1664 32.2678 47.1286 32.9495 47.1344 33.7828C46.9479 33.7537 46.7702 33.7216 46.5954 33.6895C44.0956 33.2321 42.7495 32.495 42.3125 30.8693C42.8894 29.9981 43.1836 29.4533 43.1778 28.3316C42.6184 26.3096 43.0351 25.1296 45.0133 25.2345C46.0127 21.4673 47.4258 20.634 49.4944 21.5576C49.7886 21.6887 49.9955 21.9684 50.0421 22.2918C50.0712 22.4812 50.0946 22.6677 50.1179 22.8541C50.5403 26.2047 50.3597 28.8152 49.0078 29.8C48.6349 30.0709 48.1716 30.2195 47.6064 30.2224Z" fill="#E9E8E7"/>
<path id="Vector_10" d="M46.5924 33.6889L45.0686 36.1538L41.0013 31.9787L42.3124 30.8716C42.7494 32.4973 44.0955 33.2315 46.5953 33.6919L46.5924 33.6889Z" fill="#E9E8E7"/>
<path id="Vector_11" d="M30.9715 97.9663V73.5669" stroke="#5A6C75" stroke-width="1.2" stroke-linecap="round" stroke-linejoin="round"/>
<path id="Vector_12" d="M42.3096 30.8687L38.3355 34.2279C37.2925 35.1107 36.6224 36.3578 36.4621 37.7155C35.8765 42.6481 35.6755 46.762 35.725 52.187C35.7366 53.5243 36.5175 54.7421 37.7295 55.3103C38.385 55.6162 39.0202 55.9046 39.6408 56.1727C41.9017 57.1545 43.979 57.9062 46.1059 58.6055C46.3973 58.7016 46.6886 58.7978 46.9829 58.891C47.2946 58.9901 47.6006 59.1183 47.8919 59.2669C48.8534 59.6718 50.1732 60.6828 51.1201 60.6828C52.5303 60.6828 53.5587 58.8881 53.7831 57.6732C53.7656 57.341 53.582 57.0409 53.2965 56.8719C52.8624 56.6185 52.4749 56.362 52.1544 56.0765C51.7349 55.7065 51.4289 55.2899 51.2862 54.7683C51.2425 54.611 51.0939 54.5061 50.9307 54.5207L49.471 54.6431C48.7485 54.7043 48.0288 54.5965 47.3646 54.3255C47.216 54.2643 47.0703 54.1973 46.9304 54.1215C46.2399 53.7574 45.599 53.4194 44.9813 53.096C43.5303 52.3385 42.2105 51.6509 40.7596 50.8351C40.5702 50.7273 40.4624 50.5204 40.4828 50.3048L41.3802 41.1651" stroke="#5A6C75" stroke-width="1.2" stroke-linecap="round" stroke-linejoin="round"/>
<path id="Vector_13" d="M52.7663 45.9869C53.6199 46.4035 54.7999 46.7502 55.6915 46.7182C55.8459 46.7124 55.9916 46.6949 56.1256 46.6658C56.4024 46.6017 56.6267 46.4822 56.7724 46.2928C56.7811 46.2841 56.7869 46.2724 56.7928 46.2637L56.8161 46.4414C56.8481 46.6803 57.0521 46.8609 57.2939 46.8609H57.323C57.4425 46.8609 57.5561 46.8173 57.6464 46.7357L58.8934 45.614C59.2256 45.8645 59.5315 46.0714 59.8112 46.2404C61.198 47.0795 62.0109 46.9717 62.649 46.1005C62.7568 45.9548 62.748 45.7509 62.6286 45.6111C62.4217 45.3751 62.2411 45.1478 62.0808 44.9293C61.7574 44.4952 61.5098 44.0873 61.2767 43.6881C61.2534 43.6473 61.2301 43.6065 61.2068 43.5628C61.0728 43.3152 60.828 43.1433 60.5512 43.0967C58.3253 42.7208 56.9268 42.4324 56.0353 42.1556C54.8116 41.7798 54.5406 41.4214 54.3979 40.8911C53.6695 38.199 52.9964 35.7546 52.2418 32.4419C51.9592 31.2036 50.989 30.2392 49.7508 29.9624L49.0107 29.7964" stroke="#5A6C75" stroke-width="1.2" stroke-linecap="round" stroke-linejoin="round"/>
<path id="Vector_14" d="M47.6064 30.2224C47.4636 30.7003 47.3617 31.1344 47.2888 31.5569C47.1664 32.2678 47.1286 32.9495 47.1344 33.7828C46.9479 33.7537 46.7702 33.7216 46.5954 33.6895C44.0956 33.2321 42.7495 32.495 42.3125 30.8693C42.8894 29.9981 43.1836 29.4533 43.1778 28.3316C42.6184 26.3096 43.0351 25.1296 45.0133 25.2345C46.0127 21.4673 47.4258 20.634 49.4944 21.5576C49.7886 21.6887 49.9955 21.9684 50.0421 22.2918C50.0712 22.4812 50.0946 22.6677 50.1179 22.8541C50.5403 26.2047 50.3626 28.8181 49.0078 29.8C48.6349 30.0709 48.1716 30.2195 47.6064 30.2224ZM47.6064 30.2224C47.3442 30.2224 47.0587 30.1933 46.7527 30.1321" stroke="#5A6C75" stroke-width="1.2" stroke-linecap="round" stroke-linejoin="round"/>
<path id="Vector_15" d="M41.0015 31.979L45.0687 36.1541L46.5925 33.6892" stroke="#5A6C75" stroke-width="1.2" stroke-linecap="round" stroke-linejoin="round"/>
<path id="Vector_16" d="M47.1926 33.38L49.4477 33.7821L47.2888 31.5562" stroke="#5A6C75" stroke-width="1.2" stroke-linecap="round" stroke-linejoin="round"/>
<path id="Vector_17" d="M38.5132 34.0828C37.5139 33.0397 37.7178 31.3965 39.5242 28.4305C38.8891 27.8944 39.3115 26.0094 40.7683 26.0793C38.6385 22.4782 42.4756 17.1581 47.6297 19.3112C49.3865 20.0454 51.0473 21.4322 50.1149 22.8569" stroke="#5A6C75" stroke-width="1.2" stroke-linecap="round" stroke-linejoin="round"/>
<path id="Vector_18" d="M51.9913 35.3618C51.7815 37.1274 53.148 39.4058 53.0722 41.3987C53.0227 42.7156 52.7517 44.2889 52.7663 45.9875C52.7721 46.7858 52.6673 46.9749 52.8508 47.814" stroke="#5A6C75" stroke-width="1.2" stroke-linecap="round" stroke-linejoin="round"/>
<path id="Vector_19" d="M56.0323 42.1587C54.9659 42.7472 53.8966 45.5005 55.6885 46.7183" stroke="#5A6C75" stroke-width="1.2" stroke-linecap="round" stroke-linejoin="round"/>
<path id="Vector_20" d="M52.1515 50.6606V56.9247" stroke="#5A6C75" stroke-width="1.2" stroke-linecap="round" stroke-linejoin="round"/>
<path id="Vector_21" d="M47.3616 54.3284C45.9107 53.8885 44.1713 57.2041 46.1059 58.6084" stroke="#5A6C75" stroke-width="1.2" stroke-linecap="round" stroke-linejoin="round"/>
<path id="Vector_22" d="M62.0809 44.9296L62.5675 44.6499L72.0801 50.1419L64.8954 54.2879L55.3827 48.7988L59.8112 46.2407" stroke="#5A6C75" stroke-width="1.2" stroke-linecap="round" stroke-linejoin="round"/>
<path id="Vector_23" d="M88.1405 83.5588C88.1405 84.3378 87.2454 84.4926 86.4561 84.4926C83.5749 84.4926 83.4485 82.4161 81.8441 81.5778C80.642 80.951 79.1795 80.9665 79.1795 79.2021C79.1795 78.8255 79.2466 78.3845 79.3059 77.7809C80.4099 78.3613 82.329 79.8393 82.7366 79.8393C83.2989 79.8393 83.3453 79.1145 84.0108 78.5521C85.3727 82.6406 88.1405 82.2459 88.1405 83.5588Z" fill="#E9E8E7"/>
<path id="Vector_24" d="M107.533 89.8451L83.446 75.9393" stroke="#5A6C75" stroke-width="1.2" stroke-linecap="round" stroke-linejoin="round"/>
<path id="Vector_25" d="M79.3085 77.7809C80.4125 78.3613 82.3316 79.8393 82.7392 79.8393C83.3015 79.8393 83.3479 79.1145 84.0134 78.5521" stroke="#5A6C75" stroke-width="1.2" stroke-linecap="round" stroke-linejoin="round"/>
<path id="Vector_26" d="M114.309 71.6532C114.461 74.0056 113.28 75.0761 113.383 76.696C113.422 77.2789 113.6 77.5833 113.649 78.352C113.767 80.1834 112.586 82.3991 110.574 82.5281C109.55 82.5925 108.603 82.0457 107.853 81.2487C107.35 80.7173 106.934 80.0724 106.64 79.4276C105.131 79.3089 103.852 78.0476 103.759 76.5979C103.728 76.0924 103.785 75.5868 103.754 75.0812C103.586 72.4786 100.757 73.562 100.558 70.4899C100.483 69.3446 100.821 68.6327 100.7 66.7677C100.682 66.4737 100.651 66.177 100.612 65.8855C99.5777 65.0498 98.9483 63.9458 98.8168 62.4394C98.8168 62.4162 98.8116 62.3904 98.8116 62.3672C98.7807 61.823 98.8219 61.2787 98.8864 60.7318C98.9896 59.8497 99.1392 58.9675 99.0825 58.0828C99.0206 57.1181 98.5717 55.6762 97.7076 55.7329C97.5167 55.7458 97.3207 55.818 97.135 55.9238C96.8461 54.9513 96.485 54.0047 96.0748 53.0735C96.0207 52.9523 95.9691 52.831 95.9149 52.7124C95.8143 52.4906 95.8401 52.23 95.982 52.034C97.0602 50.5637 98.6362 49.6093 100.674 49.4752C100.677 49.4752 100.679 49.4752 100.684 49.4752C103.235 49.3127 106.202 51.3014 106.434 54.941C106.478 55.5936 106.411 56.2514 106.442 56.757C106.583 58.9727 107.816 58.4594 108.773 60.4791C109.988 63.043 108.505 63.6105 111.593 66.0274C112.171 66.4788 114.097 68.385 114.306 71.6532H114.309Z" fill="#E9E8E7"/>
<path id="Vector_27" d="M112.857 91.1528V109.704C112.857 111.664 111.562 113.627 108.972 115.123C103.787 118.116 95.3887 118.116 90.2066 115.123C87.6117 113.627 86.3194 111.667 86.3194 109.704V91.0626C86.3194 93.0204 87.6117 94.9807 90.2066 96.4794C95.3887 99.4715 103.787 99.4715 108.972 96.4794C111.523 95.0065 112.818 93.0823 112.857 91.1554V91.1528Z" fill="#E9E8E7"/>
<path id="Vector_28" d="M112.857 91.06C112.857 91.091 112.857 91.1219 112.857 91.1503C112.839 93.0797 111.52 95.0014 108.972 96.4743C103.787 99.4664 95.3887 99.4664 90.2066 96.4743C87.6117 94.9782 86.3194 93.0178 86.3194 91.0574C86.3194 90.2217 86.5541 89.3885 87.021 88.5915C87.1448 88.3826 87.2815 88.1762 87.4363 87.9699C101.365 99.6573 108.384 91.8416 108.931 89.4375C109.233 88.122 109.15 86.8504 108.923 85.6123C108.938 85.62 108.954 85.6303 108.969 85.638C111.58 87.0954 112.854 89.0971 112.854 91.0574L112.857 91.06Z" fill="#E9E8E7"/>
<path id="Vector_29" d="M86.972 87.5782L87.021 88.5945C86.5515 89.3916 86.3194 90.2273 86.3194 91.0605V102.247C84.715 103.073 82.2542 102.918 81.194 101.894C81.1579 101.858 81.1218 101.822 81.0883 101.786C81.2585 92.5488 77.9852 83.5337 79.5045 79.3498C79.698 78.8159 79.9688 78.3619 80.3351 77.9956C81.1167 77.7893 81.8647 78.055 82.7649 78.6276C84.7201 79.8631 87.3976 82.5354 92.7112 84.9911C93.5392 85.3728 94.4936 85.3728 95.3216 84.9988C95.9045 84.7331 96.3817 84.3049 96.7042 83.7762C99.2888 85.4451 105.211 87.7253 108.291 83.023C108.521 83.8742 108.758 84.7408 108.923 85.6204C109.15 86.8586 109.232 88.1302 108.931 89.4458C108.384 91.8498 101.365 99.6629 87.4363 87.978C87.2815 87.8491 87.1267 87.7175 86.9694 87.5834L86.972 87.5782Z" fill="#E9E8E7"/>
<path id="Vector_30" d="M96.7068 83.7726C96.3843 84.3014 95.9071 84.7296 95.3242 84.9953C94.4936 85.3719 93.5392 85.3719 92.7138 84.9875C87.4002 82.5345 84.7227 79.8622 82.7675 78.624C83.0848 77.3756 84.0675 76.2045 85.6332 76.0911L92.1412 79.4288L93.9622 67.2513C94.1583 65.941 94.9141 64.7802 96.0335 64.0735C96.7867 63.5989 97.7411 63.0236 98.8219 62.4381C98.9354 63.9445 99.5828 65.0485 100.617 65.8842C100.656 66.1783 100.687 66.4723 100.705 66.7664C100.826 68.6339 100.488 69.3433 100.563 70.4885C100.759 73.5632 103.591 72.4773 103.759 75.0799C103.79 75.5829 103.733 76.091 103.764 76.5966C103.857 78.0437 105.134 79.3076 106.645 79.4262C106.937 80.0711 107.355 80.716 107.858 81.2473C107.981 81.8329 108.139 82.4236 108.299 83.0168C105.216 87.7217 99.2965 85.4389 96.7119 83.77L96.7068 83.7726Z" fill="#E9E8E7"/>
<path id="Vector_31" d="M99.085 58.0822C99.1417 58.967 98.9896 59.8491 98.889 60.7313C95.4506 60.1045 95.9329 56.403 96.0774 53.073C96.4849 54.0067 96.8486 54.9508 97.1375 55.9232C97.3232 55.8175 97.5193 55.7453 97.7102 55.7324C98.5743 55.6756 99.0231 57.1175 99.085 58.0822Z" fill="#E9E8E7"/>
<path id="Vector_32" d="M92.9151 74.2424L92.1413 79.4323L88.0658 77.3429C88.1612 74.7944 89.2884 73.5434 92.9151 74.245V74.2424Z" fill="#E9E8E7"/>
<path id="Vector_33" d="M86.9719 87.5783C87.1293 87.7124 87.2841 87.844 87.4388 87.9729C87.2841 88.1767 87.1448 88.3831 87.0235 88.5946L86.9745 87.5783H86.9719Z" fill="#E9E8E7"/>
<path id="Vector_34" d="M86.3195 102.25V105.871C85.6308 106.387 84.8312 106.772 84.3798 106.785C83.1881 106.821 79.8503 104.814 78.4729 103.927C78.3903 103.872 78.3568 103.767 78.3929 103.676C79.0584 102.01 80.4719 102.418 81.1942 101.897C82.2569 102.918 84.7151 103.075 86.3195 102.25Z" fill="#E9E8E7"/>
<path id="Vector_35" d="M85.6307 76.0912C84.065 76.2073 83.0822 77.3757 82.765 78.6242C81.8622 78.0515 81.1141 77.7885 80.3351 77.9922C79.9689 78.3585 79.698 78.8125 79.5045 79.3464L79.3317 79.0292C79.195 78.779 79.1718 78.4823 79.2672 78.2141L79.8786 76.4858C80.0488 76.0009 80.5002 75.6733 81.0161 75.6578C82.182 75.6269 83.384 75.6578 84.7924 75.8203C85.0684 75.8513 85.3418 75.9338 85.5894 76.0628L85.6359 76.0886L85.6307 76.0912Z" fill="#E9E8E7"/>
<path id="Vector_36" d="M96.0774 53.0735C96.0233 52.9523 95.9717 52.831 95.9175 52.7124C95.8169 52.4906 95.8427 52.23 95.9846 52.034C97.0628 50.5637 98.6388 49.6093 100.677 49.4752C100.679 49.4752 100.682 49.4752 100.687 49.4752C103.238 49.3127 106.204 51.3014 106.436 54.941C106.48 55.5936 106.413 56.2514 106.444 56.757C106.586 58.9727 107.819 58.4594 108.776 60.4791C109.991 63.043 108.508 63.6105 111.595 66.0274C112.173 66.4788 114.1 68.385 114.309 71.6532C114.461 74.0056 113.28 75.0761 113.383 76.696C113.422 77.2789 113.6 77.5833 113.649 78.352C113.767 80.1834 112.586 82.3991 110.574 82.5281C109.55 82.5925 108.603 82.0457 107.853 81.2487C107.35 80.7173 106.934 80.0724 106.64 79.4276C105.131 79.3089 103.852 78.0476 103.759 76.5979C103.728 76.0924 103.785 75.5868 103.754 75.0812C103.586 72.4786 100.757 73.562 100.558 70.4899C100.483 69.3446 100.821 68.6327 100.7 66.7677C100.682 66.4737 100.651 66.177 100.612 65.8855C99.5777 65.0498 98.9483 63.9458 98.8168 62.4394C98.8168 62.4162 98.8116 62.3904 98.8116 62.3672C98.7807 61.823 98.822 61.2787 98.8864 60.7318C98.9896 59.8497 99.1392 58.9675 99.0825 58.0828C99.0206 57.1181 98.5717 55.6762 97.7076 55.7329C97.5168 55.7458 97.3207 55.818 97.135 55.9238C96.8461 54.9513 96.4876 54.0047 96.0748 53.0735H96.0774Z" stroke="#5A6C75" stroke-width="1.2" stroke-linecap="round" stroke-linejoin="round"/>
<path id="Vector_37" d="M96.0774 53.073C95.9329 56.403 95.4506 60.1045 98.889 60.7313" stroke="#5A6C75" stroke-width="1.2" stroke-linecap="round" stroke-linejoin="round"/>
<path id="Vector_38" d="M98.8193 62.4381C97.7386 63.0236 96.7842 63.5963 96.031 64.0735C94.9089 64.7802 94.1531 65.941 93.9597 67.2513L92.1386 79.4288L85.5843 76.0653C85.3366 75.9389 85.0658 75.8563 84.7872 75.8228C83.3789 75.6629 82.1768 75.6293 81.0109 75.6603C80.4976 75.6758 80.0462 76.0034 79.8734 76.4883L79.2621 78.2165C79.1666 78.4848 79.1898 78.7814 79.3265 79.0316L79.4994 79.3489" stroke="#5A6C75" stroke-width="1.2" stroke-linecap="round" stroke-linejoin="round"/>
<path id="Vector_39" d="M87.021 88.5946L86.9719 87.5783" stroke="#5A6C75" stroke-width="1.2" stroke-linecap="round" stroke-linejoin="round"/>
<path id="Vector_40" d="M84.1733 84.9932C85.1329 85.9399 86.0666 86.8014 86.9694 87.5778C87.1268 87.7119 87.2815 87.8435 87.4363 87.9724C101.368 99.6573 108.384 91.8442 108.931 89.4401C109.233 88.1246 109.15 86.853 108.923 85.6149C108.76 84.7353 108.521 83.8711 108.291 83.0174C108.131 82.4241 107.974 81.8334 107.85 81.2479" stroke="#5A6C75" stroke-width="1.2" stroke-linecap="round" stroke-linejoin="round"/>
<path id="Vector_41" d="M96.7068 83.7735C99.2914 85.4423 105.214 87.7226 108.294 83.0202" stroke="#5A6C75" stroke-width="1.2" stroke-linecap="round" stroke-linejoin="round"/>
<path id="Vector_42" d="M88.0658 77.3403C88.1612 74.7919 89.2884 73.5408 92.9151 74.2424" stroke="#5A6C75" stroke-width="1.2" stroke-linecap="round" stroke-linejoin="round"/>
<path id="Vector_43" d="M82.765 78.6271C83.0823 77.3787 84.065 76.2076 85.6308 76.0941" stroke="#5A6C75" stroke-width="1.2" stroke-linecap="round" stroke-linejoin="round"/>
<path id="Vector_44" d="M81.1942 101.897C80.4719 102.418 79.0584 102.01 78.3929 103.676C78.3568 103.769 78.3903 103.872 78.4729 103.927C79.8503 104.814 83.1881 106.821 84.3798 106.785C84.8286 106.772 85.6282 106.387 86.3195 105.871" stroke="#5A6C75" stroke-width="1.2" stroke-linecap="round" stroke-linejoin="round"/>
<path id="Vector_45" d="M86.3194 102.249C84.715 103.075 82.2542 102.92 81.194 101.896C81.1579 101.86 81.1218 101.824 81.0883 101.788C81.2585 92.5508 77.9852 83.5356 79.5045 79.3518C79.698 78.8179 79.9688 78.3639 80.3351 77.9976C81.1167 77.7912 81.8647 78.0569 82.7649 78.6296C84.7175 79.8677 87.3976 82.5374 92.7112 84.993C93.5392 85.3748 94.4936 85.3748 95.3216 85.0008C95.9045 84.7351 96.3817 84.3069 96.7042 83.7781C96.9286 83.4093 97.0808 82.9914 97.1375 82.5477L98.7755 70.1406" stroke="#5A6C75" stroke-width="1.2" stroke-linecap="round" stroke-linejoin="round"/>
<path id="Vector_46" d="M112.857 91.153C112.818 93.0798 111.52 95.0041 108.972 96.477C103.787 99.4691 95.3887 99.4691 90.2066 96.477C87.6117 94.9809 86.3194 93.0205 86.3194 91.0602C86.3194 90.2244 86.5541 89.3912 87.021 88.5942C87.1448 88.3853 87.2815 88.1789 87.4363 87.9725" stroke="#5A6C75" stroke-width="1.2" stroke-linecap="round" stroke-linejoin="round"/>
<path id="Vector_47" d="M108.926 85.6149C108.941 85.6226 108.957 85.6329 108.972 85.6406C111.582 87.098 112.857 89.0997 112.857 91.06V109.702C112.857 111.662 111.562 113.625 108.972 115.121C103.787 118.113 95.3887 118.113 90.2066 115.121C87.6117 113.625 86.3194 111.665 86.3194 109.702V91.06" stroke="#5A6C75" stroke-width="1.2" stroke-linecap="round" stroke-linejoin="round"/>
</g>
</svg>
