<svg width="136" height="136" viewBox="0 0 136 136" fill="none" xmlns="http://www.w3.org/2000/svg">
<rect width="136" height="136" fill="#E9E8E7"/>
<g clip-path="url(#clip0_2680_798)">
<path d="M51.4181 73.6772C52.7778 72.8789 53.6245 71.1723 53.6245 68.7392C53.6245 63.8772 50.2544 57.9592 46.0919 55.5303C44.0106 54.3138 42.1295 54.1997 40.7698 54.9981L44.7781 52.6495C46.1378 51.8553 48.023 51.9736 50.1001 53.1859C54.2585 55.619 57.6327 61.5328 57.6327 66.3948C57.6327 68.8279 56.7902 70.5345 55.4263 71.3328L51.4181 73.6772Z" fill="#E9E8E7"/>
<path d="M87.7257 44.6489V78.8053L81.8239 82.2564V96.6481L76.3642 99.8415V51.2935L87.7257 44.6489Z" fill="#E9E8E7"/>
<path d="M87.7257 44.649L76.3642 51.2935L65.0027 44.649L76.3642 38.0086L87.7257 44.649Z" fill="#E9E8E7"/>
<path d="M66.0955 22.0752C66.0955 20.7234 67.1715 19.6336 68.5021 19.6336C69.8326 19.6336 70.9128 20.7234 70.9128 22.0752C70.9128 23.4269 69.8326 24.5125 68.5021 24.5125C67.1715 24.5125 66.0955 23.4227 66.0955 22.0752Z" fill="#E9E8E7"/>
<path d="M53.6245 68.7392C53.6245 71.1723 52.7779 72.8788 51.4181 73.6772C50.0584 74.4756 48.1732 74.3573 46.0961 73.145C45.1618 72.5958 44.2692 71.8777 43.4476 71.0287C40.5905 68.1056 38.5635 63.7082 38.5635 59.9361C38.5635 57.4988 39.406 55.7922 40.7699 54.9981C42.1296 54.1997 44.0148 54.318 46.0919 55.5303C50.2503 57.9634 53.6245 63.8772 53.6245 68.7392Z" fill="#E9E8E7"/>
<path d="M76.3642 51.2935V99.8415L65.0027 93.1969V44.6489L76.3642 51.2935Z" fill="#E9E8E7"/>
<path d="M116.968 98.2659C118.298 98.2659 119.374 99.3558 119.374 100.703C119.374 102.051 118.298 103.141 116.968 103.141C115.637 103.141 114.557 102.051 114.557 100.703C114.557 99.3558 115.633 98.2659 116.968 98.2659Z" fill="#E9E8E7"/>
<path d="M104.538 82.2564L93.1853 88.901L81.8239 82.2564L93.1853 75.6119L104.538 82.2564Z" fill="#E9E8E7"/>
<path d="M93.1853 88.901V109.899L81.8239 103.255V82.2565L93.1853 88.901Z" fill="#E9E8E7"/>
<path d="M20.0364 98.2659C21.3669 98.2659 22.443 99.3558 22.443 100.703C22.443 102.051 21.3669 103.141 20.0364 103.141C18.7059 103.141 17.6256 102.051 17.6256 100.703C17.6256 99.3558 18.7059 98.2659 20.0364 98.2659Z" fill="#E9E8E7"/>
<path d="M48.0981 81.5975V116.366L36.7366 109.726V74.9529L48.0981 81.5975Z" fill="#E9E8E7"/>
<path d="M104.539 93.4378V103.255L93.1854 109.899V88.901L104.539 82.2565V93.4378Z" fill="#E9E8E7"/>
<path d="M51.4181 73.6772L54.3503 71.9664L59.4638 74.9529L48.1023 81.5975L36.7408 74.9529L43.4434 71.0329H43.4476C44.2692 71.8777 45.1618 72.5958 46.0961 73.145C48.1774 74.3615 50.0584 74.4756 51.4181 73.6772Z" fill="#E9E8E7"/>
<path d="M59.4596 77.6522V109.726L48.0981 116.366V81.5975L59.4596 74.9529V77.6522Z" fill="#E9E8E7"/>
<path d="M22.1218 99.4825L36.7366 90.9371" stroke="#5A6C75" stroke-width="1.2" stroke-linecap="round" stroke-linejoin="round"/>
<path d="M59.4596 77.6522L65.0027 74.4038" stroke="#5A6C75" stroke-width="1.2" stroke-linecap="round" stroke-linejoin="round"/>
<path d="M68.4979 24.5082V42.6044" stroke="#5A6C75" stroke-width="1.2" stroke-linecap="round" stroke-linejoin="round"/>
<path d="M65.0027 44.6489V93.1969L76.3642 99.8415L81.8239 96.6481" stroke="#5A6C75" stroke-width="1.2" stroke-linecap="round" stroke-linejoin="round"/>
<path d="M104.539 93.4377L114.878 99.4825" stroke="#5A6C75" stroke-width="1.2" stroke-linecap="round" stroke-linejoin="round"/>
<path d="M119.374 100.703C119.374 99.3558 118.298 98.2659 116.968 98.2659C115.637 98.2659 114.557 99.3558 114.557 100.703C114.557 102.051 115.633 103.141 116.968 103.141C118.302 103.141 119.374 102.051 119.374 100.703Z" stroke="#5A6C75" stroke-width="1.2" stroke-linecap="round" stroke-linejoin="round"/>
<path d="M22.4388 100.703C22.4388 99.3558 21.3627 98.2659 20.0322 98.2659C18.7017 98.2659 17.6215 99.3558 17.6215 100.703C17.6215 102.051 18.7017 103.141 20.0322 103.141C21.3627 103.141 22.4388 102.051 22.4388 100.703Z" stroke="#5A6C75" stroke-width="1.2" stroke-linecap="round" stroke-linejoin="round"/>
<path d="M70.9087 22.0752C70.9087 20.7234 69.8284 19.6336 68.4979 19.6336C67.1674 19.6336 66.0913 20.7234 66.0913 22.0752C66.0913 23.4269 67.1674 24.5125 68.4979 24.5125C69.8284 24.5125 70.9087 23.4227 70.9087 22.0752Z" stroke="#5A6C75" stroke-width="1.2" stroke-linecap="round" stroke-linejoin="round"/>
<path d="M65.0027 44.649L76.3642 38.0086L87.7257 44.649L76.3642 51.2935L65.0027 44.649Z" stroke="#5A6C75" stroke-width="1.2" stroke-linecap="round" stroke-linejoin="round"/>
<path d="M76.3642 51.2935V99.8415" stroke="#5A6C75" stroke-width="1.2" stroke-linecap="round" stroke-linejoin="round"/>
<path d="M87.7257 78.8053V44.6489" stroke="#5A6C75" stroke-width="1.2" stroke-linecap="round" stroke-linejoin="round"/>
<path d="M54.3503 71.9664L59.4596 74.9529L48.0981 81.5975L36.7366 74.9529L43.4392 71.0329" stroke="#5A6C75" stroke-width="1.2" stroke-linecap="round" stroke-linejoin="round"/>
<path d="M48.0981 81.5975V116.366" stroke="#5A6C75" stroke-width="1.2" stroke-linecap="round" stroke-linejoin="round"/>
<path d="M36.7366 74.9529V109.726L48.0981 116.366L59.4596 109.726V74.9529" stroke="#5A6C75" stroke-width="1.2" stroke-linecap="round" stroke-linejoin="round"/>
<path d="M81.8239 82.2564L93.1854 75.6119L104.539 82.2564L93.1854 88.901L81.8239 82.2564Z" stroke="#5A6C75" stroke-width="1.2" stroke-linecap="round" stroke-linejoin="round"/>
<path d="M93.1854 88.901V109.899" stroke="#5A6C75" stroke-width="1.2" stroke-linecap="round" stroke-linejoin="round"/>
<path d="M81.8239 82.2565V103.255L93.1854 109.899L104.539 103.255V82.2565" stroke="#5A6C75" stroke-width="1.2" stroke-linecap="round" stroke-linejoin="round"/>
<path d="M40.7699 54.9981C42.1338 54.204 44.0148 54.318 46.0919 55.5303C50.2503 57.9635 53.6245 63.8772 53.6245 68.7392C53.6245 71.1723 52.7779 72.8789 51.4181 73.6772C50.0584 74.4756 48.1732 74.3573 46.0961 73.145C45.1618 72.5959 44.2692 71.8778 43.4476 71.0287C40.5989 68.0972 38.5635 63.7083 38.5635 59.9361C38.5635 57.4988 39.406 55.7965 40.7699 54.9981Z" stroke="#5A6C75" stroke-width="1.2" stroke-linecap="round" stroke-linejoin="round"/>
<path d="M40.7699 54.9981L44.7781 52.6495C46.1378 51.8553 48.0231 51.9736 50.1002 53.1859C54.2585 55.619 57.6328 61.5328 57.6328 66.3948C57.6328 68.8279 56.7903 70.5345 55.4264 71.3328" stroke="#5A6C75" stroke-width="1.2" stroke-linecap="round" stroke-linejoin="round"/>
<path d="M51.4182 73.6772L55.4264 71.3328" stroke="#5A6C75" stroke-width="1.2" stroke-linecap="round" stroke-linejoin="round"/>
<path d="M42.5967 61.8159L45.0993 66.2132L49.8499 63.4337" stroke="#5A6C75" stroke-width="1.2" stroke-linecap="round" stroke-linejoin="round"/>
</g>
<defs>
<clipPath id="clip0_2680_798">
<rect width="103" height="98" fill="white" transform="translate(17 19)"/>
</clipPath>
</defs>
</svg>
