<svg width="126" height="129" viewBox="0 0 126 129" fill="none" xmlns="http://www.w3.org/2000/svg">
  <svg x="4.22" y="56.75" width="51.65" height="66.83" viewBox="0 0 57.2616 74.0884" preserveAspectRatio="none" overflow="visible">
    <path id="Vector" d="M27.2691 19.1113C30.4192 20.5901 33.6956 23.2954 36.5752 27.0588C41.5228 33.5214 44.0178 41.3606 43.4708 47.3423C43.2543 49.7831 42.5268 51.9172 41.2523 53.5163C39.6111 55.5723 37.3027 56.4621 34.6936 56.2877C33.5574 56.2096 32.3611 55.939 31.1407 55.4761C27.6419 54.1475 23.9206 51.2619 20.6803 47.0357C15.426 40.1763 12.9432 31.7599 13.9231 25.664C14.1215 24.3896 14.4822 23.2173 14.9992 22.1832C15.2878 21.6001 15.6184 21.0711 16.0091 20.5841C18.5821 17.3498 22.8084 17.0072 27.2691 19.1113ZM0.270498 14.8549L0 15.9431L4.17811 21.3476L4.57484 28.4535L0.775535 29.8722L3.1381 38.0662L8.04361 40.4889L11.8611 47.9856L10.6227 52.7648L16.0152 59.7986L19.7725 58.3016L25.5558 63.3335L27.3593 69.6578L33.7196 72.838L34.892 67.9986L40.4288 68.6358L44.5768 74.0884L49.4705 72.2068L47.6128 65.8764L50.793 61.8846L55.6985 64.3795L57.2616 58.1453L53.0775 52.7408L52.6806 45.6289L56.4801 44.2222L54.1115 36.0282L49.2058 33.6115L45.3885 26.1089L46.6209 21.3236L41.2343 14.2959L37.477 15.7868L31.6877 10.761L29.8902 4.43667L23.5298 1.25045L22.3515 6.09587L16.8148 5.44663L16.6464 5.23018H16.6404L12.6666 0L7.77311 1.88169L9.63078 8.21201L6.45056 12.2038L1.53904 9.70892L0.252445 14.8489L0.270498 14.8549Z" fill="#E9E8E7"/>
  </svg>
  <svg x="5.63" y="61.51" width="7.28" height="6.26" viewBox="0 0 8.08588 6.93153" preserveAspectRatio="none" overflow="visible">
    <path id="Vector" d="M0 4.43665L4.90566 6.93153L8.08588 2.93372L7.2261 0L0 4.43665Z" fill="#E9E8E7"/>
  </svg>
  <svg x="11.24" y="49.86" width="20.13" height="12.40" viewBox="0 0 22.3154 13.7428" preserveAspectRatio="none" overflow="visible">
    <path id="Vector" d="M0 9.52859L4.89347 7.64091L8.86728 12.8711L8.87932 12.8771L9.04165 13.0935L14.5784 13.7428L15.7567 8.89735L22.3154 5.1761L18.3718 0L13.4782 1.88167L0 9.52859Z" fill="#E9E8E7"/>
  </svg>
  <svg x="16.58" y="72.79" width="26.85" height="34.75" viewBox="0 0 29.7599 38.5202" preserveAspectRatio="none" overflow="visible">
    <path id="Vector" d="M0.212199 7.87641C-0.773723 13.9723 1.70911 22.3887 6.96936 29.2481C10.2097 33.4683 13.937 36.3599 17.4298 37.6885C18.6502 38.1514 19.8465 38.428 20.9827 38.5001C23.5918 38.6684 25.9002 37.7847 27.5414 35.7287C28.8159 34.1296 29.5435 31.9954 29.7599 29.5547C26.6037 28.0698 23.3332 25.3705 20.4476 21.6072C15.4999 15.1446 13.0111 7.30529 13.5582 1.32363C9.09749 -0.780475 4.87126 -0.4378 2.29825 2.7965C1.90749 3.28345 1.57688 3.81848 1.28832 4.3956C0.771312 5.42962 0.410585 6.60193 0.212199 7.87641Z" fill="#E9E8E7"/>
  </svg>
  <svg x="25.46" y="50.98" width="17.89" height="9.78" viewBox="0 0 19.8327 10.8331" preserveAspectRatio="none" overflow="visible">
    <path id="Vector" d="M6.55873 3.92565L0 7.64691L6.35443 10.8331L19.8327 3.1862L13.4782 0L6.55873 3.92565Z" fill="#E9E8E7"/>
  </svg>
  <svg x="31.20" y="53.86" width="22.38" height="17.13" viewBox="0 0 24.8164 18.997" preserveAspectRatio="none" overflow="visible">
    <path id="Vector" d="M0 7.64692L1.7975 13.9712L7.58671 18.997L11.344 17.5061L24.8164 9.85923L21.0651 11.3501L15.2757 6.32434L13.4782 0L0 7.64692Z" fill="#E9E8E7"/>
  </svg>
  <svg x="41.43" y="62.75" width="17.01" height="13.25" viewBox="0 0 18.8648 14.6746" preserveAspectRatio="none" overflow="visible">
    <path id="Vector" d="M0 7.64689L5.38648 14.6746L18.8648 7.0277L13.4724 0L0 7.64689Z" fill="#E9E8E7"/>
  </svg>
  <svg x="45.17" y="69.09" width="20.03" height="20.16" viewBox="0 0 22.2012 22.3516" preserveAspectRatio="none" overflow="visible">
    <path id="Vector" d="M1.23228 7.64689L0 12.4262L3.81735 19.9288L8.72301 22.3516L22.2012 14.6986L17.2957 12.288L13.4722 4.77929L14.7107 0L1.23228 7.64689Z" fill="#E9E8E7"/>
  </svg>
  <svg x="47.17" y="111.66" width="13.83" height="10.23" viewBox="0 0 15.3359 11.3321" preserveAspectRatio="none" overflow="visible">
    <path id="Vector" d="M3.18022 1.00395L0 5.00172L1.85166 11.3321L15.3359 3.68515L14.2598 0.0240337L14.2538 0L8.08573 3.49879L3.18022 1.00395Z" fill="#E9E8E7"/>
  </svg>
  <svg x="51.75" y="91.67" width="16.29" height="17.54" viewBox="0 0 18.0532 19.4419" preserveAspectRatio="none" overflow="visible">
    <path id="Vector" d="M0 6.92547L0.39085 14.0373L4.57498 19.4419L18.0532 11.795L13.8751 6.39644L13.5203 0L3.79945 5.51875L0 6.92547Z" fill="#E9E8E7"/>
  </svg>
  <svg x="53.05" y="82.35" width="14.29" height="14.29" viewBox="0 0 15.8468 15.8469" preserveAspectRatio="none" overflow="visible">
    <path id="Vector" d="M0 7.65294L2.36858 15.8469L15.8468 8.20601L13.4782 0L0 7.65294Z" fill="#E9E8E7"/>
  </svg>
  <svg x="54.47" y="102.31" width="13.57" height="12.51" viewBox="0 0 15.0413 13.875" preserveAspectRatio="none" overflow="visible">
    <path id="Vector" d="M1.56311 7.64689L0 13.875L13.4842 6.23415L15.0413 0L1.56311 7.64689Z" fill="#E9E8E7"/>
  </svg>
  <svg x="3.54" y="56.07" width="53.01" height="68.18" viewBox="0 0 58.7676 75.5945" preserveAspectRatio="none" overflow="visible">
    <path id="Vector" d="M2.31296 10.471L7.21862 12.9659L10.3988 8.96806L8.54117 2.63774L13.4346 0.750052L17.4085 5.98025L17.4205 5.98624L17.5828 6.20268L23.1196 6.85192L24.2979 2.0065L30.6523 5.19272L32.4498 11.517L38.239 16.5428L41.9963 15.0519L47.3828 22.0796L46.1505 26.8589L49.9679 34.3616L54.8735 36.7843L57.2421 44.9783L53.4427 46.385L53.8335 53.4969L58.0176 58.9014L56.4545 65.1295L51.549 62.6347L48.3688 66.6324L50.2205 72.9628L45.3268 74.8445L41.1788 69.3979L35.642 68.7546L34.4696 73.594L28.1093 70.4138L26.3118 64.0895L20.5285 59.0577L16.7712 60.5546L11.3787 53.5209L12.6171 48.7416L8.79963 41.239L3.88811 38.8223L1.52554 30.6283L5.32484 29.2095L4.92812 22.1037L0.750007 16.6991L2.31296 10.471Z" stroke="#5A6C75" stroke-width="1.5" stroke-linecap="round" stroke-linejoin="round"/>
  </svg>
  <svg x="15.91" y="72.12" width="28.26" height="36.10" viewBox="0 0 31.3329 40.0186" preserveAspectRatio="none" overflow="visible">
    <path id="Vector" d="M14.3083 2.07209C9.84759 -0.0320112 5.62137 0.310664 3.04835 3.54497C2.65759 4.03192 2.32699 4.56694 2.03843 5.14407C1.52142 6.17808 1.16069 7.35039 0.962304 8.62488C-0.0236177 14.7208 2.45922 23.1372 7.71947 29.9965C10.9598 34.2168 14.6871 37.1084 18.1799 38.437C19.4003 38.8999 20.5966 39.1764 21.7328 39.2486C24.3419 39.4169 26.6504 38.5331 28.2915 36.4771C29.566 34.878 30.2876 32.7439 30.51 30.3031C31.051 24.3275 28.5621 16.4822 23.6144 10.0196C20.7288 6.25626 17.4584 3.55698 14.3083 2.07209Z" stroke="#5A6C75" stroke-width="1.5" stroke-linecap="round" stroke-linejoin="round"/>
  </svg>
  <svg x="28.08" y="73.30" width="16.03" height="26.83" viewBox="0 0 17.7763 29.7373" preserveAspectRatio="none" overflow="visible">
    <path id="Vector" d="M0.824389 0.750049C0.277323 6.73772 2.76615 14.577 7.71379 21.0396C10.6054 24.8029 13.8699 27.5022 17.0261 28.9871" stroke="#5A6C75" stroke-width="1.5" stroke-linecap="round" stroke-linejoin="round"/>
  </svg>
  <svg x="48.17" y="110.99" width="13.51" height="11.58" viewBox="0 0 14.9845 12.8324" preserveAspectRatio="none" overflow="visible">
    <path id="Vector" d="M13.1522 0.750178L13.1583 0.774211L14.2344 4.43533L0.750131 12.0823" stroke="#5A6C75" stroke-width="1.5" stroke-linecap="round" stroke-linejoin="round"/>
  </svg>
  <svg x="10.56" y="49.18" width="21.53" height="9.94" viewBox="0 0 23.8517 11.0288" preserveAspectRatio="none" overflow="visible">
    <path id="Vector" d="M23.1017 5.97424L19.122 0.750052L14.2284 2.63172L0.75013 10.2786" stroke="#5A6C75" stroke-width="1.5" stroke-linecap="round" stroke-linejoin="round"/>
  </svg>
  <svg x="24.79" y="50.30" width="43.23" height="47.02" viewBox="0 0 47.9227 52.1188" preserveAspectRatio="none" overflow="visible">
    <path id="Vector" d="M33.6944 51.3687L47.1726 43.7278L44.804 35.5218L39.8985 33.1111L36.075 25.6024L37.3134 20.8231L31.9209 13.7954L28.1696 15.2863L22.3803 10.2605L20.5828 3.9362L14.2284 0.75L0.75013 8.39691" stroke="#5A6C75" stroke-width="1.5" stroke-linecap="round" stroke-linejoin="round"/>
  </svg>
  <svg x="30.52" y="53.18" width="13.50" height="8.26" viewBox="0 0 14.9785 9.14718" preserveAspectRatio="none" overflow="visible">
    <path id="Vector" d="M14.2284 0.75013L0.75013 8.39705" stroke="#5A6C75" stroke-width="1.5" stroke-linecap="round" stroke-linejoin="round"/>
  </svg>
  <svg x="40.75" y="62.07" width="13.50" height="8.26" viewBox="0 0 14.9726 9.14715" preserveAspectRatio="none" overflow="visible">
    <path id="Vector" d="M14.2225 0.75013L0.75013 8.39702" stroke="#5A6C75" stroke-width="1.5" stroke-linecap="round" stroke-linejoin="round"/>
  </svg>
  <svg x="45.60" y="68.42" width="13.51" height="8.26" viewBox="0 0 14.9786 9.14715" preserveAspectRatio="none" overflow="visible">
    <path id="Vector" d="M14.2285 0.75013L0.75013 8.39702" stroke="#5A6C75" stroke-width="1.5" stroke-linecap="round" stroke-linejoin="round"/>
  </svg>
  <svg x="52.37" y="81.68" width="13.51" height="8.25" viewBox="0 0 14.9785 9.1532" preserveAspectRatio="none" overflow="visible">
    <path id="Vector" d="M14.2284 0.75013L0.75013 8.40307" stroke="#5A6C75" stroke-width="1.5" stroke-linecap="round" stroke-linejoin="round"/>
  </svg>
  <svg x="55.20" y="101.63" width="13.51" height="8.26" viewBox="0 0 14.9785 9.14715" preserveAspectRatio="none" overflow="visible">
    <path id="Vector" d="M14.2284 0.75013L0.75013 8.39702" stroke="#5A6C75" stroke-width="1.5" stroke-linecap="round" stroke-linejoin="round"/>
  </svg>
  <svg x="53.79" y="90.99" width="14.92" height="24.51" viewBox="0 0 16.5415 27.1702" preserveAspectRatio="none" overflow="visible">
    <path id="Vector" d="M11.2586 0.750021L11.6133 7.14646L15.7915 12.545L14.2344 18.7792L0.750131 26.42" stroke="#5A6C75" stroke-width="1.5" stroke-linecap="round" stroke-linejoin="round"/>
  </svg>
  <svg x="4.96" y="60.83" width="7.87" height="5.37" viewBox="0 0 8.72631 5.93686" preserveAspectRatio="none" overflow="visible">
    <path id="Vector" d="M0.750106 5.18676L7.9762 0.750106" stroke="#5A6C75" stroke-width="1.5" stroke-linecap="round" stroke-linejoin="round"/>
  </svg>
  <svg x="36.55" y="14.55" width="68.39" height="88.51" viewBox="0 0 75.827 98.1094" preserveAspectRatio="none" overflow="visible">
    <path id="Vector" d="M36.1103 25.3075C40.2817 27.2659 44.6204 30.8483 48.4336 35.8318C54.9854 44.3897 58.2893 54.7706 57.5649 62.6916C57.2783 65.9237 56.3149 68.7498 54.6272 70.8674C52.4539 73.59 49.397 74.7682 45.942 74.5374C44.4374 74.4339 42.8532 74.0756 41.2372 73.4626C36.604 71.7033 31.6761 67.8821 27.3852 62.2856C20.4274 53.2023 17.1396 42.0571 18.4372 33.9849C18.6999 32.2972 19.1776 30.7448 19.8623 29.3755C20.2444 28.6033 20.6822 27.9028 21.1996 27.2579C24.6069 22.975 30.2033 22.5212 36.1103 25.3075ZM0.358199 19.6712L0 21.1121L5.53274 28.269L6.05809 37.6786L1.02698 39.5574L4.15553 50.4081L10.6515 53.6163L15.7067 63.5435L14.0667 69.8723L21.2076 79.1865L26.1831 77.2042L33.8415 83.8675L36.2298 92.2423L44.6522 96.4535L46.2047 90.0451L53.5366 90.8889L59.0295 98.1094L65.5098 95.6177L63.0498 87.2349L67.2611 81.9489L73.7571 85.2526L75.827 76.9972L70.2863 69.8405L69.7607 60.4228L74.792 58.56L71.6555 47.7093L65.1594 44.5091L60.1043 34.5739L61.7363 28.2371L54.6033 18.9309L49.6277 20.9052L41.9616 14.2499L39.5813 5.87513L31.1586 1.65587L29.5983 8.07228L22.2664 7.21254L22.0435 6.92592H22.0355L16.7733 0L10.2933 2.49177L12.7533 10.8745L8.54196 16.1605L2.03802 12.8568L0.334293 19.6633L0.358199 19.6712Z" fill="#E9E8E7"/>
  </svg>
  <svg x="38.42" y="20.85" width="9.65" height="8.28" viewBox="0 0 10.7075 9.17887" preserveAspectRatio="none" overflow="visible">
    <path id="Vector" d="M0 5.8751L6.49617 9.17887L10.7075 3.88489L9.56895 0L0 5.8751Z" fill="#E9E8E7"/>
  </svg>
  <svg x="45.85" y="5.42" width="26.66" height="16.41" viewBox="0 0 29.5505 18.1985" preserveAspectRatio="none" overflow="visible">
    <path id="Vector" d="M0 12.618L6.48004 10.1182L11.7422 17.0442L11.7582 17.0521L11.9731 17.3387L19.305 18.1985L20.8653 11.7821L29.5505 6.8543L24.3284 0L17.8481 2.49175L0 12.618Z" fill="#E9E8E7"/>
  </svg>
  <svg x="52.92" y="35.78" width="35.56" height="46.01" viewBox="0 0 39.4086 51.0093" preserveAspectRatio="none" overflow="visible">
    <path id="Vector" d="M0.280998 10.4301C-1.02458 18.5024 2.26324 29.6476 9.22897 38.7309C13.5199 44.3194 18.4557 48.1485 23.081 49.9079C24.697 50.5209 26.2811 50.8871 27.7857 50.9826C31.2407 51.2055 34.2976 50.0353 36.4709 47.3127C38.1586 45.1951 39.1221 42.369 39.4086 39.1369C35.2292 37.1706 30.8983 33.5961 27.0771 28.6126C20.5253 20.0547 17.2296 9.67381 17.954 1.75277C12.0471 -1.03352 6.45063 -0.579744 3.04339 3.70319C2.52593 4.34802 2.08814 5.05651 1.70602 5.82075C1.02139 7.19002 0.543705 8.74241 0.280998 10.4301Z" fill="#E9E8E7"/>
  </svg>
  <svg x="64.68" y="6.90" width="23.69" height="12.95" viewBox="0 0 26.2628 14.3454" preserveAspectRatio="none" overflow="visible">
    <path id="Vector" d="M8.68521 5.19843L0 10.1262L8.41466 14.3454L26.2628 4.21924L17.8481 0L8.68521 5.19843Z" fill="#E9E8E7"/>
  </svg>
  <svg x="72.27" y="10.71" width="29.64" height="22.70" viewBox="0 0 32.8624 25.1563" preserveAspectRatio="none" overflow="visible">
    <path id="Vector" d="M0 10.1262L2.38028 18.501L10.0465 25.1563L15.022 23.182L32.8624 13.0558L27.8948 15.0301L20.2284 8.37482L17.8481 0L0 10.1262Z" fill="#E9E8E7"/>
  </svg>
  <svg x="85.82" y="22.48" width="22.54" height="17.53" viewBox="0 0 24.9812 19.4324" preserveAspectRatio="none" overflow="visible">
    <path id="Vector" d="M0 10.1262L7.13288 19.4324L24.9812 9.30622L17.8404 0L0 10.1262Z" fill="#E9E8E7"/>
  </svg>
  <svg x="90.78" y="30.88" width="26.52" height="26.70" viewBox="0 0 29.3993 29.5984" preserveAspectRatio="none" overflow="visible">
    <path id="Vector" d="M1.63182 10.1262L0 16.455L5.05502 26.3902L11.5512 29.5984L29.3993 19.4642L22.9034 16.272L17.8402 6.32883L19.4802 0L1.63182 10.1262Z" fill="#E9E8E7"/>
  </svg>
  <svg x="93.43" y="87.27" width="18.32" height="13.53" viewBox="0 0 20.3081 15.0062" preserveAspectRatio="none" overflow="visible">
    <path id="Vector" d="M4.21132 1.32945L0 6.62338L2.452 15.0062L20.3081 4.87995L18.8831 0.0318259L18.8751 0L10.7073 4.63317L4.21132 1.32945Z" fill="#E9E8E7"/>
  </svg>
  <svg x="99.49" y="60.78" width="21.57" height="23.22" viewBox="0 0 23.9064 25.7453" preserveAspectRatio="none" overflow="visible">
    <path id="Vector" d="M0 9.17085L0.517571 18.5885L6.05829 25.7453L23.9064 15.6192L18.3737 8.4703L17.9039 0L5.03131 7.30805L0 9.17085Z" fill="#E9E8E7"/>
  </svg>
  <svg x="101.20" y="48.44" width="18.93" height="18.94" viewBox="0 0 20.9847 20.9848" preserveAspectRatio="none" overflow="visible">
    <path id="Vector" d="M0 10.1342L3.13652 20.9848L20.9847 10.8666L17.8481 0L0 10.1342Z" fill="#E9E8E7"/>
  </svg>
  <svg x="103.09" y="74.87" width="17.97" height="16.58" viewBox="0 0 19.918 18.3736" preserveAspectRatio="none" overflow="visible">
    <path id="Vector" d="M2.0699 10.1262L0 18.3736L17.8561 8.25539L19.918 0L2.0699 10.1262Z" fill="#E9E8E7"/>
  </svg>
  <svg x="35.88" y="13.87" width="69.76" height="89.85" viewBox="0 0 77.335 99.6175" preserveAspectRatio="none" overflow="visible">
    <path id="Vector" d="M2.81971 13.6227L9.31588 16.9265L13.5272 11.6325L11.0672 3.24977L17.5473 0.750052L22.8095 7.67599L22.8254 7.68391L23.0404 7.97054L30.3723 8.83028L31.9326 2.41387L40.3472 6.63313L42.7275 15.0079L50.3937 21.6632L55.3692 19.6889L62.5021 28.9951L60.8703 35.324L65.9253 45.2591L72.4215 48.4673L75.558 59.318L70.5267 61.1808L71.0443 70.5985L76.585 77.7552L74.5151 86.0027L68.0191 82.6989L63.8078 87.9929L66.2598 96.3757L59.7796 98.8674L54.2867 91.6549L46.9548 90.8031L45.4022 97.2115L36.9798 93.0003L34.5995 84.6255L26.9411 77.9622L21.9656 79.9445L14.8247 70.6303L16.4647 64.3015L11.4095 54.3663L4.90554 51.1661L1.77699 40.3154L6.8081 38.4366L6.28275 29.027L0.750007 21.8701L2.81971 13.6227Z" stroke="#5A6C75" stroke-width="1.5" stroke-linecap="round" stroke-linejoin="round"/>
  </svg>
  <svg x="52.24" y="35.12" width="37.00" height="47.37" viewBox="0 0 41.0053 52.5077" preserveAspectRatio="none" overflow="visible">
    <path id="Vector" d="M18.7041 2.50124C12.7972 -0.285058 7.20073 0.168719 3.79349 4.45165C3.27604 5.09648 2.83824 5.80497 2.45612 6.56921C1.77149 7.93848 1.29381 9.49087 1.0311 11.1786C-0.274476 19.2509 3.01334 30.396 9.97908 39.4794C14.27 45.0679 19.2058 48.897 23.8311 50.6564C25.4471 51.2693 27.0312 51.6356 28.5358 51.7311C31.9908 51.954 35.0477 50.7837 37.2211 48.0611C38.9087 45.9435 39.8642 43.1175 40.1587 39.8854C40.8752 31.9723 37.5793 21.5834 31.0275 13.0255C27.2063 8.04201 22.8756 4.46756 18.7041 2.50124Z" stroke="#5A6C75" stroke-width="1.5" stroke-linecap="round" stroke-linejoin="round"/>
  </svg>
  <svg x="68.36" y="36.68" width="20.79" height="35.09" viewBox="0 0 23.0533 38.8923" preserveAspectRatio="none" overflow="visible">
    <path id="Vector" d="M0.848499 0.750049C0.124063 8.67905 3.41982 19.06 9.97159 27.6179C13.8008 32.6014 18.1237 36.1758 22.3031 38.1421" stroke="#5A6C75" stroke-width="1.5" stroke-linecap="round" stroke-linejoin="round"/>
  </svg>
  <svg x="94.97" y="86.59" width="17.46" height="14.89" viewBox="0 0 19.3563 16.5065" preserveAspectRatio="none" overflow="visible">
    <path id="Vector" d="M17.1732 0.750178L17.1812 0.782003L18.6062 5.63013L0.750131 15.7563" stroke="#5A6C75" stroke-width="1.5" stroke-linecap="round" stroke-linejoin="round"/>
  </svg>
  <svg x="45.18" y="4.74" width="28.05" height="12.73" viewBox="0 0 31.0985 14.1181" preserveAspectRatio="none" overflow="visible">
    <path id="Vector" d="M30.3485 7.66802L25.0785 0.750052L18.5983 3.2418L0.75013 13.368" stroke="#5A6C75" stroke-width="1.5" stroke-linecap="round" stroke-linejoin="round"/>
  </svg>
  <svg x="64.00" y="6.22" width="56.81" height="61.83" viewBox="0 0 62.9738 68.5304" preserveAspectRatio="none" overflow="visible">
    <path id="Vector" d="M44.3756 67.7803L62.2237 57.662L59.0872 46.7955L52.5912 43.6032L47.528 33.6601L49.168 27.3313L42.0272 18.025L37.0596 19.9993L29.3932 13.3441L27.0129 4.96924L18.5983 0.75L0.75013 10.8762" stroke="#5A6C75" stroke-width="1.5" stroke-linecap="round" stroke-linejoin="round"/>
  </svg>
  <svg x="71.60" y="10.03" width="17.44" height="10.50" viewBox="0 0 19.3484 11.6265" preserveAspectRatio="none" overflow="visible">
    <path id="Vector" d="M18.5983 0.75013L0.75013 10.8763" stroke="#5A6C75" stroke-width="1.5" stroke-linecap="round" stroke-linejoin="round"/>
  </svg>
  <svg x="85.14" y="21.81" width="17.44" height="10.50" viewBox="0 0 19.3406 11.6264" preserveAspectRatio="none" overflow="visible">
    <path id="Vector" d="M18.5905 0.75013L0.75013 10.8763" stroke="#5A6C75" stroke-width="1.5" stroke-linecap="round" stroke-linejoin="round"/>
  </svg>
  <svg x="91.58" y="30.21" width="17.46" height="10.49" viewBox="0 0 19.3486 11.6264" preserveAspectRatio="none" overflow="visible">
    <path id="Vector" d="M18.5985 0.75013L0.75013 10.8763" stroke="#5A6C75" stroke-width="1.5" stroke-linecap="round" stroke-linejoin="round"/>
  </svg>
  <svg x="100.53" y="47.76" width="17.46" height="10.50" viewBox="0 0 19.3484 11.6344" preserveAspectRatio="none" overflow="visible">
    <path id="Vector" d="M18.5983 0.75013L0.75013 10.8843" stroke="#5A6C75" stroke-width="1.5" stroke-linecap="round" stroke-linejoin="round"/>
  </svg>
  <svg x="104.28" y="74.19" width="17.46" height="10.49" viewBox="0 0 19.3484 11.6264" preserveAspectRatio="none" overflow="visible">
    <path id="Vector" d="M18.5983 0.75013L0.75013 10.8763" stroke="#5A6C75" stroke-width="1.5" stroke-linecap="round" stroke-linejoin="round"/>
  </svg>
  <svg x="102.42" y="60.11" width="19.32" height="32.02" viewBox="0 0 21.4182 35.4929" preserveAspectRatio="none" overflow="visible">
    <path id="Vector" d="M14.6657 0.750021L15.1354 9.22032L20.6682 16.3692L18.6062 24.6246L0.750131 34.7428" stroke="#5A6C75" stroke-width="1.5" stroke-linecap="round" stroke-linejoin="round"/>
  </svg>
  <svg x="37.74" y="20.17" width="9.98" height="6.66" viewBox="0 0 11.0692 7.37532" preserveAspectRatio="none" overflow="visible">
    <path id="Vector" d="M0.750106 6.62521L10.3191 0.750106" stroke="#5A6C75" stroke-width="1.5" stroke-linecap="round" stroke-linejoin="round"/>
  </svg>
</svg>