<svg width="115" height="132" viewBox="0 0 114.483 131.5" fill="none" xmlns="http://www.w3.org/2000/svg">
  <path d="M89.076 118.335C78.8281 126.931 63.0853 130.862 50.2843 130.748C41.0701 124.131 30.3363 114.325 21.2281 103.335C20.0001 101.85 18.7898 100.331 17.6148 98.8114C7.87054 86.1164 0.750047 72.2907 0.750047 60.3024V14.1783C21.3253 20.1415 36.0963 19.258 50.2843 12.4291C64.4634 29.5765 79.2345 41.2114 99.8185 50.2313V96.3555C99.8185 105.632 95.5339 112.911 89.076 118.335Z" stroke="#5A6C75" stroke-width="1.5" stroke-linecap="round" stroke-linejoin="round"/>
  <path d="M50.6995 102.893C62.2813 106.965 72.3172 103.971 77.4323 96.1346C79.738 92.6008 81.0544 88.0865 81.0544 82.7859C81.0544 82.2381 81.0455 81.6992 81.019 81.1515C80.6568 74.0133 78.0153 66.6455 73.8278 60.0904C68.1827 51.256 59.737 43.8617 50.2931 40.4251" stroke="#5A6C75" stroke-width="1.5" stroke-linecap="round" stroke-linejoin="round"/>
  <path d="M49.8425 40.2749C40.5753 37.0239 32.2886 38.296 26.7318 42.9517C22.5443 46.4589 19.9647 51.9009 19.5495 58.7917C19.5142 59.3218 19.5053 59.843 19.5053 60.3907C19.5053 65.6913 20.804 71.1598 23.1186 76.3721C28.2337 87.9363 38.2695 98.2283 49.8513 102.592" stroke="#5A6C75" stroke-width="1.5" stroke-linecap="round" stroke-linejoin="round"/>
  <path d="M26.7319 42.9517C29.6207 44.9218 32.9778 46.8742 36.6529 48.7471C40.8404 50.885 45.4431 52.8992 50.2843 54.6572C55.1167 56.4064 59.7105 57.7493 63.8892 58.668C67.5731 59.472 70.9213 59.949 73.8279 60.0904H73.8367" stroke="#5A6C75" stroke-width="1.5" stroke-linecap="round" stroke-linejoin="round"/>
  <path d="M19.5496 58.783C23.4986 61.3803 28.2956 64.0571 33.6581 66.6367C38.7643 69.1015 44.383 71.4779 50.2755 73.6247C56.1769 75.7803 61.7955 77.4765 66.8753 78.7221C72.2466 80.0384 77.0436 80.8512 81.0014 81.1427" stroke="#5A6C75" stroke-width="1.5" stroke-linecap="round" stroke-linejoin="round"/>
  <path d="M23.1187 76.3633C26.8468 78.943 31.4053 81.5579 36.5116 84.0492C40.7786 86.1253 45.4255 88.113 50.2844 89.8887C55.1433 91.6556 59.799 93.0514 64.0483 94.0674C69.1457 95.2954 73.6954 95.9933 77.4323 96.1346H77.4412" stroke="#5A6C75" stroke-width="1.5" stroke-linecap="round" stroke-linejoin="round"/>
  <path d="M66.8841 78.7309C66.8929 78.3687 66.9018 78.0065 66.9018 77.6443C66.9018 70.9832 65.7798 64.4281 63.8804 58.6681C60.8767 49.5422 55.903 42.5012 50.2755 40.4251C50.1253 40.3721 49.9928 40.3279 49.8426 40.2749C44.383 38.5611 39.5771 41.9888 36.6441 48.7559C34.7447 53.1289 33.6404 58.8977 33.6404 65.5412C33.6404 65.9122 33.6404 66.2833 33.6493 66.6455C33.7818 72.7412 34.7977 78.7309 36.4939 84.0492C39.4093 93.1751 44.2505 100.393 49.8338 102.592C49.984 102.654 50.1165 102.707 50.2667 102.76C50.408 102.813 50.5405 102.858 50.6819 102.902C56.2829 104.536 61.1153 101.082 64.0306 94.0762C65.7268 89.9947 66.6632 84.7471 66.8664 78.7397L66.8841 78.7309Z" stroke="#5A6C75" stroke-width="1.5" stroke-linecap="round" stroke-linejoin="round"/>
  <path d="M50.2843 40.4163V102.76" stroke="#5A6C75" stroke-width="1.5" stroke-linecap="round" stroke-linejoin="round"/>
  <path d="M0.750017 14.1783L14.6641 2.49925C35.2394 8.46244 50.0104 7.579 64.1984 0.750044C78.3775 17.9064 93.1486 29.5412 113.733 38.5523V84.6853C113.733 93.9614 109.448 101.232 102.99 106.656L89.0759 118.335" stroke="#5A6C75" stroke-width="1.5" stroke-linecap="round" stroke-linejoin="round"/>
  <path d="M50.2843 12.4291L64.1984 0.750044" stroke="#5A6C75" stroke-width="1.5" stroke-linecap="round" stroke-linejoin="round"/>
</svg>
