<svg viewBox="0 0 96.5979 140.923" fill="none" xmlns="http://www.w3.org/2000/svg">
<g id="Group 44">
<g id="Fill">
<path id="Vector" d="M84.7808 0.508513C84.2579 0.485144 83.7468 0.593223 83.256 0.783091L44.5259 16.0163C44.2747 16.1186 43.5173 16.4073 43.2778 16.5416L52.5139 21.8888C52.7505 21.7516 53.4614 21.4553 53.7097 21.3531C54.4779 21.0989 92.2353 6.11399 93.0036 5.94457C93.5994 5.7956 94.2508 5.80144 94.8117 6.05849C93.3745 5.27857 85.2628 0.228093 84.7808 0.511434V0.508513Z" fill="#E9E8E7"/>
<path id="Vector_2" d="M9.81247 104.581L9.68395 59.1534L0.500192 53.8167L0.628719 99.2447C0.672535 115.068 6.25465 126.393 15.4004 131.706L24.5842 137.043C15.4384 131.73 9.85921 120.405 9.81247 104.581Z" fill="#E9E8E7"/>
<path id="Vector_3" d="M9.75062 58.2136C10.1333 55.6693 11.5412 53.2566 13.5626 51.6646C14.4418 51.0629 52.0707 22.2059 52.985 21.7093L43.8012 16.3726C42.8519 16.8954 5.26098 45.7261 4.37882 46.3279C2.13546 48.1155 0.572704 50.9256 0.502599 53.8174L9.68636 59.1542C9.68636 58.8416 9.71265 58.5261 9.75354 58.2136H9.75062Z" fill="#E9E8E7"/>
<path id="Vector_4" d="M52.661 21.7583C52.9064 21.6181 53.1489 21.4983 53.3913 21.4049L92.1214 6.17164C94.3648 5.28949 96.0239 6.55722 96.0297 9.16863L96.1583 54.5967C96.2401 83.1616 78.2494 117.919 53.7155 136.605C53.4731 136.789 53.2306 136.953 52.9853 137.093C52.7399 137.233 52.4975 137.353 52.255 137.449C27.6949 147.109 9.56982 133.199 9.48803 104.637L9.35951 59.209C9.35074 56.5976 10.9953 53.4253 13.2357 51.7195L51.9279 22.252C52.1703 22.068 52.4157 21.9044 52.6581 21.7642L52.661 21.7583Z" fill="#E9E8E7"/>
</g>
<path id="Vector_5" d="M9.5964 59.2163V59.301L9.72492 104.729C9.76874 120.091 14.9828 131.571 24.409 137.056L24.4236 137.065L15.2369 131.725C5.80196 126.243 0.582061 114.76 0.538246 99.3894C0.488053 81.7479 0.550217 71.8769 0.500024 54.2354M0.500024 54.2354L9.59361 59.5539L9.59069 59.551C9.56148 56.6299 11.1272 53.7323 13.4027 51.927C18.719 47.9457 52.7462 22.0197 52.7462 22.0197M0.500024 54.2354C0.54384 51.3873 1.66883 48.2553 4.04948 46.3566C10.1165 41.8173 42.5459 16.8174 43.2704 16.5136M43.2704 16.5136C43.5858 16.3266 43.9013 16.1572 44.2372 16.0228L82.9673 0.789601C83.5135 0.576365 84.0247 0.485813 84.533 0.503339C84.9887 0.433234 86.8494 1.44099 92.303 4.69503C93.3951 5.34711 94.8153 6.49966 94.8153 6.49966M43.2704 16.5136L52.7462 22.0197M94.8153 6.49966C94.3275 6.27766 93.3689 6.12314 92.7554 6.27796C92.2797 6.38175 77.4563 12.2009 66.3549 16.5832L65.9172 16.756C58.1385 19.8786 54.309 21.2252 52.7462 22.0197M94.8153 6.49966C95.5543 7.005 95.9662 7.98355 95.9691 9.26297L96.0976 54.691C96.1385 68.4842 91.8855 84.3367 84.1243 99.3333C76.3631 114.33 65.5611 127.559 53.7133 136.582C53.4796 136.761 53.2401 136.921 53.0006 137.059C52.7611 137.196 52.5215 137.313 52.2878 137.406C41.071 141.817 30.6692 141.379 22.9986 136.171C14.475 130.384 9.7604 119.217 9.7195 104.728M40.6298 131.699C35.5124 131.699 30.9101 130.232 27.1306 127.316C21.3964 122.898 17.8632 114.401 16.9617 104.882L31.2803 113.253C31.6718 113.475 32.1248 113.476 32.6973 113.146C33.2932 112.801 33.854 112.208 34.2776 111.478C55.5245 74.6772 67.1723 53.9266 88.4192 17.1258C88.8801 17.3901 89.114 18.0057 89.1168 18.6764L89.2312 59.1333C89.2639 70.9224 85.6507 84.4665 79.0537 97.2713C72.4567 110.079 63.2765 121.378 53.2025 129.082L53.1698 129.101C48.78 130.837 44.5537 131.699 40.6325 131.699H40.6298ZM16.6179 60.5734C16.6152 59.3031 17.3973 57.7809 18.4818 56.954L52.4205 30.983C52.5376 30.8954 52.6575 30.8132 52.7747 30.7448C52.8946 30.6763 53.0145 30.6161 53.1344 30.5696L79.4122 20.2081C60.9937 52.1101 50.5184 70.0908 32.0998 101.993C31.6529 102.77 31.0541 103.398 30.4144 103.769C29.7513 104.151 29.1174 104.21 28.6325 103.935L16.7426 97.2395L16.6179 60.5734Z" stroke="#5A6C75"/>
</g>
</svg>
