<svg viewBox="0 0 151 151" fill="none" xmlns="http://www.w3.org/2000/svg">
<svg x="3.37" y="-5.81" width="144.34" height="151.98" viewBox="0 0 144.347 151.985" fill="none">

<g id="Group">
<g id="Group_2">
<path id="Vector" d="M139.216 67.4829L129.471 73.1454L129.438 84.9083L139.183 79.2458C139.183 79.2458 139.207 79.2307 139.219 79.2247C139.63 78.974 140.017 78.5784 140.023 78.0711L140.056 66.3082C140.047 66.8306 139.642 67.2323 139.216 67.4829Z" fill="#E9E8E7"/>
<path id="Vector_2" d="M4.41564 79.5063L6.34542 80.6206L6.62326 80.7807L6.87392 80.9257L14.291 85.208C14.3394 85.2352 14.3907 85.2473 14.442 85.2473C14.4934 85.2473 14.5447 85.2352 14.593 85.208C14.6867 85.1537 14.744 85.054 14.744 84.9453L14.7773 73.1824C14.7773 73.1643 14.7773 73.1492 14.7712 73.1341C14.7712 73.119 14.7712 73.1039 14.7622 73.0888C14.741 73.0193 14.6927 72.9589 14.6263 72.9196L4.75388 67.2209C4.58476 67.1243 4.44886 67.0155 4.33712 66.9038C4.30088 66.8676 4.26464 66.8283 4.23444 66.786C4.11666 66.629 4.05324 66.4659 4.05324 66.2968C4.05324 66.1428 3.94452 66.0189 3.79654 65.9978C3.78144 65.9918 3.76634 65.9918 3.75124 65.9918C3.58514 65.9918 3.45226 66.1216 3.44924 66.2877V66.2968L3.41602 78.0567V78.0627C3.41602 78.6184 3.77238 79.1348 4.41564 79.5063Z" fill="#E9E8E7"/>
<path id="Vector_3" d="M102.768 73.4173C88.1148 67.489 71.7011 66.4079 56.1964 69.0927C42.99 71.6536 28.3279 77.1198 21.4242 89.4535C18.2834 94.358 19.3374 103.66 19.1833 109.419C19.1894 109.268 19.1894 109.12 19.1984 108.969C21.4061 89.0851 47.3328 81.218 64.3625 79.7774C85.4965 77.7208 123.313 85.144 125.043 110.279L125.077 98.5165C125.931 88.3391 113.519 77.3282 102.768 73.4113V73.4173Z" fill="#E9E8E7"/>
<path id="Vector_4" d="M0.0333086 98.1675L8.84443e-05 109.93C-0.0240716 118.894 4.90155 127.869 14.7679 135.359L14.8011 123.596C4.93175 116.103 0.00612863 107.131 0.0333086 98.1675Z" fill="#E9E8E7"/>
</g>
<g id="Group_3">
<path id="Vector_5" d="M144.235 98.5777C144.235 98.8163 144.229 99.0548 144.22 99.2964C143.936 109.262 137.395 117.821 129.706 123.632L129.673 135.394C143.888 124.227 144.773 115.55 144.235 98.5807V98.5777Z" fill="#E9E8E7"/>
<path id="Vector_6" d="M4.113 130.653C4.113 130.598 4.113 130.547 4.113 130.496C4.09488 130.541 4.10092 130.595 4.113 130.653Z" fill="#E9E8E7"/>
<path id="Vector_7" d="M140.397 130.686C140.801 131.501 130.228 136.913 129.76 137.39C128.525 138.048 126.912 138.045 125.68 137.39L115.811 131.691C88.4648 143.098 56.1237 143.049 28.7776 131.664L18.9263 137.39C17.6942 138.048 16.0785 138.048 14.8463 137.39C14.2544 136.765 4.48167 132.069 4.11625 130.652C4.35483 146.236 1.32879 141.041 14.8131 149.15C16.0483 149.811 17.6579 149.808 18.8931 149.15L28.7443 143.424C56.0904 154.809 88.4316 154.858 115.778 143.451L125.647 149.15C126.882 149.811 128.495 149.808 129.727 149.15C130.349 148.498 140.829 143.427 140.382 142.27L140.415 130.507C140.412 130.565 140.406 130.625 140.397 130.683V130.686Z" fill="#E9E8E7"/>
</g>
<path id="Vector_8" d="M144.232 98.2757C144.371 88.7597 137.616 79.0927 129.468 73.1463L139.213 67.4808C139.28 67.4415 139.346 67.3992 139.409 67.3539C140.334 66.7258 140.234 65.6748 139.198 65.1191L129.317 59.4113C128.187 58.759 126.36 58.759 125.237 59.4113L115.491 65.0768C88.8758 53.7156 54.8222 53.7126 28.3368 65.104L18.4796 59.4113C17.3501 58.759 15.523 58.759 14.3995 59.4113L4.58152 65.1161C4.15268 65.3668 3.88692 65.6748 3.78726 65.9979C3.58794 66.614 4.06208 67.1908 4.5936 67.4838L14.466 73.1825C-5.19422 88.198 -4.42412 109.136 14.7952 123.595C14.6351 123.689 7.26328 127.971 7.07302 128.083C7.02168 128.113 5.07076 129.246 4.94392 129.321C4.34596 129.69 4.00772 130.122 4.13456 130.738C4.22214 131.082 4.49394 131.417 4.95902 131.683L5.68684 132.1L5.711 132.115L11.9564 135.721L12.0802 135.79L14.8405 137.388C15.4988 137.765 16.3716 137.913 17.1477 137.871C17.7548 137.838 18.4252 137.684 18.9205 137.388L28.4697 131.837L28.7717 131.662C55.5652 143.011 89.0358 143.053 115.808 131.686L116.11 131.861L125.677 137.388C126.867 138.046 128.568 138.049 129.758 137.388C131.53 136.355 136.776 133.311 138.624 132.236C139.113 131.925 140.14 131.475 140.318 130.925C140.59 130.261 140.228 129.714 139.56 129.321C139.406 129.234 137.483 128.119 137.404 128.077L137.157 127.932L130.005 123.804L129.703 123.629C136.142 118.736 141.671 112.092 143.541 104.301C144.012 102.319 144.254 100.308 144.229 98.2757H144.232ZM107.669 121.17C83.8263 134.374 31.1515 132.163 20.053 103.796C18.9779 100.399 18.9024 96.817 19.8688 93.3682C21.3153 88.4365 24.0726 84.7431 28.3519 81.0345C29.6566 79.9322 31.079 78.8752 32.6554 77.8605L35.5607 76.1723C36.9318 75.3448 38.3632 74.6653 39.843 74.007C55.5319 67.1848 73.9237 66.1489 90.6455 69.6703C97.1234 71.1319 103.197 73.0859 108.793 76.429C109.303 76.7159 111.299 77.8816 111.825 78.1776C131.902 91.4082 128.078 110.597 107.669 121.17Z" fill="#E9E8E7"/>
<path id="Vector_9" d="M46.8859 60.9799C40.0275 65.2442 35.3707 73.2774 35.123 81.3559L35.1744 99.9017C35.1744 100.835 35.5066 101.49 36.0351 101.798L58.6126 114.92C58.0811 114.612 57.7549 113.957 57.7519 113.024L57.7006 94.4778C57.7006 94.1939 57.7066 93.907 57.7217 93.6231C58.3227 85.8527 62.8134 78.2151 69.4635 74.1018L97.2203 58.0777C97.6038 57.8573 97.9904 57.6549 98.386 57.4707C100.621 56.4137 103.39 55.9577 105.619 57.2533C70.2819 37.2065 86.9281 39.7433 46.8859 60.9799Z" fill="#E9E8E7"/>
<path id="Vector_10" d="M58.6118 114.919L36.0313 101.797C35.5028 101.489 35.1736 100.834 35.1706 99.9005L35.1162 81.3577C35.2129 78.2833 35.9467 75.212 37.197 72.355L60.5023 83.973C58.9501 86.9869 57.9776 90.2969 57.7209 93.6249C57.7028 93.9088 57.6968 94.1957 57.6968 94.4796L57.7511 113.025C57.7511 113.956 58.0803 114.611 58.6118 114.922V114.919Z" fill="#E9E8E7"/>
<g id="Group_4">
<path id="Vector_11" d="M109.061 64.8222C109.04 57.3326 103.737 54.3126 97.22 58.0755L69.4632 74.0996C62.946 77.8625 57.6791 86.9829 57.7003 94.4756L57.7516 113.021C57.7576 114.897 59.0834 115.652 60.7142 114.71L106.165 88.4688C107.796 87.5265 109.116 85.2434 109.11 83.368L109.058 64.8222H109.061Z" fill="#E9E8E7"/>
<path id="Vector_12" d="M90.2816 54.6849C100.349 44.6177 100.349 28.2955 90.2816 18.2283C80.2144 8.16107 63.8922 8.16107 53.825 18.2283C43.7578 28.2955 43.7578 44.6177 53.825 54.6849C63.8922 64.7521 80.2144 64.7521 90.2816 54.6849Z" fill="#E9E8E7"/>
</g>
</g>

</svg>
<svg x="38.20" y="4.56" width="74.59" height="105.05" viewBox="0 0 74.9989 105.448" fill="none">

<g id="Group">
<path id="Vector" d="M74.7657 66.9511V66.6068C74.7657 66.5192 74.7627 66.193 74.7657 66.0964L74.7324 54.6506C74.7989 51.6306 73.6271 48.1606 71.1417 46.8228C71.1356 46.8137 71.1235 46.8167 71.1205 46.8077C66.1828 44.0142 62.4894 41.7794 59.0586 39.7197C58.956 39.8919 58.8472 40.061 58.7355 40.2271C61.6226 41.9666 64.5943 43.7544 68.5022 46.0043C66.8533 45.8413 64.8842 46.3788 63.3319 47.167C62.743 47.4509 61.6136 48.1244 61.0337 48.4566C60.8374 48.5683 60.4418 48.7978 60.2455 48.9096L45.2995 57.5438C45.2633 57.5558 44.8616 57.7974 44.8163 57.8246C44.7529 57.8518 44.3845 58.0723 44.3271 58.1085L34.6842 63.6774C31.0179 65.8004 27.8077 69.5724 25.7662 73.4048L2.96214 62.0375C4.97648 57.5679 8.27734 53.6419 12.4147 51.0719C15.6129 49.3747 18.3974 47.8375 21.4174 46.0859C21.2513 45.953 21.0912 45.8171 20.9281 45.6812C18.035 47.3452 15.1207 48.9549 12.1067 50.5555C5.61068 54.6023 1.10484 61.8714 0.316622 69.512C0.111262 70.9465 0.244141 76.5245 0.223001 78.0375V78.3818L0.256221 89.7309C0.256221 90.7426 0.6156 91.5067 1.2649 91.8842C1.2649 91.8872 23.8394 105 23.8424 105.003C23.8424 105.003 23.8485 105.009 23.8515 105.009C24.6337 105.426 25.4249 105.26 26.2494 104.798L71.7004 78.5569C72.1534 78.2942 72.5852 77.9348 72.9718 77.509C74.0409 76.3402 74.8049 74.64 74.7989 73.1934L74.7808 66.9511H74.7657ZM0.893441 90.2745C0.778681 89.6252 0.845121 77.9559 0.808881 77.358C0.820961 76.5335 0.73942 70.7472 0.85418 70.0677C1.06256 67.4977 1.70582 64.9609 2.71148 62.5811L25.4823 73.9303C24.0327 76.8265 22.9485 80.2542 22.7975 83.3768C22.8066 84.2526 22.6767 102.937 22.9485 103.786L1.55784 91.3587C1.21658 91.1564 0.987061 90.7789 0.893441 90.2715V90.2745ZM72.8087 76.763C72.4161 77.2583 71.9148 77.7325 71.3833 78.0345L25.9323 104.278C25.2346 104.68 24.5974 104.755 24.1354 104.49H24.1293C24.0176 104.42 23.9149 104.336 23.8273 104.233C23.8062 104.206 23.785 104.179 23.7669 104.151C23.5434 103.84 23.4257 103.393 23.4257 102.853L23.3713 84.307C23.3653 83.4161 23.471 82.5312 23.6099 81.6524C24.3045 77.1556 26.3249 72.9095 29.1546 69.364C30.8156 67.3135 32.7997 65.5468 34.9832 64.1908L45.372 58.1931L45.4264 58.1629L45.822 57.9333L45.8461 57.9152C46.5015 57.5468 61.372 48.9488 61.9156 48.6408C64.4946 47.0462 67.8468 45.6872 70.8155 47.3301C73.1409 48.5593 74.1919 51.8873 74.1254 54.6506L74.1586 65.7491C74.1586 65.9303 74.1798 72.7525 74.1798 73.1994C74.1798 74.3772 73.6301 75.7302 72.8057 76.7661L72.8087 76.763Z" fill="var(--fill-0, #5A6C75)" stroke="#5A6C75" stroke-width="0.4"/>
<path id="Vector_2" d="M37.4203 0.2C23.0421 0.2 11.3396 11.9025 11.3396 26.2807C11.3396 34.1448 14.8398 41.2086 20.3634 45.9923C20.4449 46.0617 20.5265 46.1342 20.608 46.2006C20.6895 46.2701 20.7711 46.3396 20.8526 46.406C21.1486 46.6506 21.4476 46.8862 21.7556 47.1187C21.9912 47.2939 22.2267 47.469 22.4683 47.6351C26.7054 50.6129 31.8635 52.3614 37.4234 52.3614C42.9832 52.3614 48.1081 50.6249 52.3361 47.6653C55.2323 45.6419 57.7087 43.0357 59.5751 40.0308C62.0666 36.0383 63.5011 31.3241 63.5011 26.2837C63.5011 11.9055 51.8016 0.20302 37.4203 0.20302V0.2ZM59.0556 39.7167C57.1107 42.8364 54.4984 45.5302 51.4271 47.5506C47.4075 50.2112 42.5936 51.7574 37.4203 51.7574C32.2471 51.7574 27.403 50.1991 23.3713 47.5234C23.1206 47.3573 22.87 47.1852 22.6223 47.01C22.2086 46.711 21.7979 46.403 21.4053 46.0829C21.3207 46.0164 21.2392 45.95 21.1576 45.8805C21.0761 45.8141 20.9946 45.7446 20.913 45.6752C15.4227 40.9972 11.9376 34.0361 11.9376 26.2777C11.9376 12.2287 23.3683 0.79796 37.4173 0.79796C51.4664 0.79796 62.8971 12.2287 62.8971 26.2777C62.8971 31.2063 61.4897 35.8118 59.0526 39.7167H59.0556Z" fill="var(--fill-0, #5A6C75)" stroke="#5A6C75" stroke-width="0.4"/>
</g>

</svg>
<svg x="38.19" y="4.56" width="74.61" height="78.17" viewBox="0 0 74.6093 78.3728" fill="none">

<g id="Group">
<path id="Vector" d="M74.5791 66.9511V66.6068C74.5791 66.5464 74.5791 66.3863 74.5791 66.2595V66.0964L74.5458 54.6506C74.5579 54.0375 74.5217 53.4033 74.4311 52.7722C74.3979 52.5426 74.3586 52.3161 74.3133 52.0896C74.2046 52.0534 74.0928 52.0141 73.9841 51.9779C73.8754 51.9386 73.7667 51.9024 73.658 51.8662C73.658 51.8662 73.6559 51.8662 73.6519 51.8662C73.7063 52.0957 73.7546 52.3222 73.7939 52.5547C73.9147 53.2614 73.966 53.9741 73.9509 54.6536L73.9841 65.7521V66.6098C73.9902 68.4943 74.0053 72.8491 74.0053 73.2025C74.0053 74.3803 73.4556 75.7332 72.6312 76.7691C72.5043 76.9291 72.3654 77.0832 72.2235 77.2311C72.3171 77.2795 72.4107 77.3248 72.5043 77.3731C72.5979 77.4214 72.6916 77.4697 72.7822 77.515C72.9181 77.367 73.0509 77.213 73.1717 77.0469C74.0324 75.9205 74.6153 74.4618 74.6093 73.1994L74.5911 66.9571L74.5791 66.9511ZM60.8411 48.4566C60.6448 48.5683 60.2492 48.7948 60.0529 48.9096L45.1069 57.5438C45.1069 57.5438 45.0737 57.5619 45.0404 57.58C44.9136 57.6525 44.6629 57.8065 44.6267 57.8246C44.5754 57.8458 44.3156 58.0028 44.1948 58.0753C44.1707 58.0904 44.1495 58.1025 44.1405 58.1085C44.3187 58.1206 44.4908 58.1357 44.666 58.1508C44.8441 58.1629 45.0163 58.178 45.1914 58.1931L45.2458 58.1629L45.6414 57.9333L45.6656 57.9152C45.7169 57.885 45.8619 57.8035 46.0763 57.6797C46.0974 57.6676 46.1186 57.6555 46.1427 57.6404C48.4561 56.3086 58.105 50.7276 60.9528 49.0878C61.3877 48.8341 61.6655 48.677 61.732 48.6408C61.584 48.6046 61.436 48.5744 61.2911 48.5472C61.1401 48.514 60.9921 48.4838 60.8441 48.4566H60.8411ZM59.3854 40.0278C59.2103 39.9251 59.0412 39.8194 58.869 39.7197C58.7663 39.8919 58.6576 40.058 58.5459 40.2271C58.718 40.3298 58.8871 40.4355 59.0593 40.5381C59.171 40.369 59.2828 40.1999 59.3854 40.0278ZM28.5331 69.4003C28.4063 69.4124 28.2794 69.4244 28.1526 69.4395C28.1466 69.4395 28.1435 69.4395 28.1375 69.4395C27.9684 69.657 27.8053 69.8744 27.6452 70.0949C27.6513 70.0949 27.6603 70.0949 27.6694 70.0949C27.7902 70.0828 27.911 70.0707 28.0288 70.0586C28.0288 70.0586 28.0439 70.0586 28.0529 70.0586C28.1858 70.0435 28.3187 70.0284 28.4516 70.0194C28.4516 70.0194 28.4576 70.0194 28.4606 70.0194C28.6237 69.7989 28.7898 69.5845 28.962 69.3701C28.823 69.3791 28.6841 69.3942 28.5482 69.4063C28.5422 69.4063 28.5361 69.4063 28.5301 69.4063L28.5331 69.4003ZM20.1768 45.9923C19.1258 46.5963 18.0688 47.1912 17.0058 47.7831C16.4712 48.0851 15.9337 48.3811 15.3931 48.677C15.6951 48.6197 16.0001 48.5653 16.3051 48.514C16.6071 48.4596 16.9091 48.4083 17.2111 48.3569H17.2172C17.7215 48.0761 18.2198 47.7952 18.7242 47.5083C19.3674 47.1489 20.0107 46.7775 20.666 46.403C20.5845 46.3365 20.5029 46.2671 20.4214 46.1976C20.3399 46.1312 20.2583 46.0587 20.1768 45.9892V45.9923ZM19.5486 71.0703L19.9714 71.2848C20.1345 71.2515 20.2885 71.2183 20.4516 71.1881L20.0167 70.9707C19.8597 71.0009 19.7057 71.0341 19.5456 71.0703H19.5486ZM1.25345 65.2991C1.12963 65.3625 1.00582 65.429 0.888037 65.4954H0.881996C0.869916 65.5286 0.860857 65.5588 0.854817 65.5921C0.788377 65.8276 0.727975 66.0602 0.673615 66.2957C0.661535 66.332 0.652476 66.3712 0.646436 66.4075C0.401816 67.4282 0.226656 68.4641 0.117936 69.506C-0.078364 70.8469 0.030355 75.8148 0.027335 77.6872C0.027335 77.817 0.027335 77.9318 0.027335 78.0284V78.3727C0.126995 78.3153 0.226655 78.261 0.329335 78.2036C0.428995 78.1492 0.528655 78.0918 0.631335 78.0375C0.631335 78.0375 0.631336 78.0375 0.637376 78.0375C0.637376 77.6721 0.631337 77.4305 0.628317 77.358C0.640397 76.5335 0.558855 70.7472 0.673615 70.0677C0.785355 68.6906 1.02092 67.3286 1.37426 65.9877C1.3803 65.9575 1.38936 65.9303 1.39842 65.9001C1.46184 65.6525 1.53129 65.4048 1.60679 65.1572C1.61283 65.1391 1.61586 65.1209 1.62492 65.1028C1.50412 65.1662 1.38332 65.2297 1.26554 65.2961L1.25345 65.2991Z" fill="var(--fill-0, #5A6C75)"/>
<path id="Vector_2" d="M37.234 0.2C22.8558 0.2 11.1533 11.9025 11.1533 26.2807C11.1533 34.1448 14.6535 41.2086 20.1771 45.9923C20.3613 45.8896 20.5455 45.7809 20.7297 45.6782C15.2394 41.0002 11.7543 34.0391 11.7543 26.2807C11.7543 12.2317 23.185 0.80098 37.234 0.80098C51.2831 0.80098 62.7138 12.2317 62.7138 26.2807C62.7138 31.2094 61.3065 35.8149 58.8693 39.7197C58.7636 39.8919 58.6519 40.058 58.5462 40.2271C58.7183 40.3298 58.8874 40.4355 59.0596 40.5381C59.1713 40.369 59.2831 40.1999 59.3857 40.0278C61.8772 36.0353 63.3117 31.3211 63.3117 26.2807C63.3117 11.9025 51.6123 0.2 37.231 0.2H37.234ZM51.9928 47.0402H51.9867C51.7421 47.2154 51.4945 47.3845 51.2408 47.5506C51.4009 47.5687 51.5579 47.5868 51.718 47.608C51.8629 47.6261 52.0079 47.6412 52.1468 47.6623C52.3884 47.4932 52.624 47.3241 52.8565 47.1459C52.7206 47.1278 52.5787 47.1097 52.4428 47.0946C52.2918 47.0734 52.1408 47.0553 51.9928 47.0402Z" fill="var(--fill-0, #5A6C75)" stroke="#5A6C75" stroke-width="0.4"/>
</g>

</svg>
<svg x="3.00" y="51.87" width="144.98" height="94.56" viewBox="0 0 145.365 94.96" fill="none">

<g id="Group">
<path id="Vector" d="M145.096 41.0916C145.111 34.8311 142.698 28.6522 138.156 23.035L139.886 22.0293C139.886 22.0293 139.914 22.0173 139.914 22.0142L139.775 21.7485L139.587 21.5069L137.766 22.5639C135.752 20.1539 133.342 17.8527 130.564 15.7024L139.92 10.2634C140.065 10.1789 140.191 10.0883 140.303 9.99163L140.273 20.5858C140.267 21.0237 139.859 21.3378 139.615 21.4857C139.693 21.6126 139.847 21.8723 139.92 22.0022C140.527 21.6337 140.868 21.1354 140.871 20.5888L140.904 8.8259C140.904 8.26418 140.548 7.74777 139.902 7.37329L130.02 1.66851C128.788 0.955786 126.861 0.955786 125.638 1.66851L116.025 7.25551C113.763 6.26797 111.402 5.3529 109.013 4.54958C109.067 4.7791 109.116 5.0056 109.155 5.23814C111.462 6.0173 113.742 6.91123 115.926 7.86857C116.013 7.90481 116.116 7.90179 116.198 7.85045L125.943 2.18795C126.982 1.58395 128.676 1.58395 129.724 2.18795L139.606 7.89574C140.593 8.44538 140.472 9.25777 139.621 9.73795L129.875 15.4035C129.8 15.4488 129.733 15.5303 129.73 15.6239C129.706 15.7266 129.763 15.8353 129.842 15.9048C130.002 16.0286 130.168 16.1524 130.325 16.2732C133.173 18.4959 135.553 20.7911 137.624 23.334C149.801 38.1773 144.767 54.893 130.165 65.8405C129.948 65.9613 129.869 66.2633 130.111 66.4082C130.201 66.4686 130.464 66.6076 130.561 66.668L137.516 70.6815C137.643 70.751 137.896 70.905 138.02 70.9775L139.965 72.0979C140.518 72.4331 140.805 72.8257 140.596 73.324C139.763 74.2935 134.112 77.2712 132.91 78.0503C131.101 79.053 130.37 79.4697 130.144 79.654C129.277 80.116 128.214 80.1915 127.263 79.9771C126.925 79.8925 126.598 79.7687 126.296 79.5966L116.539 73.9582C116.539 73.9582 116.537 73.9582 116.533 73.9582L116.442 73.919C89.2229 85.1051 56.6794 85.2742 29.4481 73.9069C29.4119 73.8918 29.3726 73.8827 29.3333 73.8827C29.2729 73.8827 29.2125 73.8978 29.1612 73.9341L19.3281 79.6479C18.4583 80.116 17.3892 80.1976 16.4349 79.9801C16.1359 79.9137 15.843 79.7989 15.5712 79.66C15.3145 79.4516 14.2968 78.8506 12.5723 77.9326L6.43569 74.3901C5.69579 73.9009 5.13709 73.466 4.98911 73.2002C4.87737 72.7623 5.14917 72.4029 5.65351 72.1009L7.57725 70.9835C7.70711 70.908 7.97589 70.754 8.10575 70.6785L15.0518 66.6408L15.3538 66.4656C15.4927 66.3931 15.6467 66.3116 15.6527 66.1395C15.6588 66.0368 15.6135 65.9401 15.5319 65.8797C14.6441 65.2063 13.7985 64.5177 12.9861 63.8171C11.1771 62.2467 9.48287 60.5494 7.96079 58.7072C-4.15847 44.1418 0.0967151 27.5861 14.7196 16.3185C14.9128 16.1071 15.2873 16.0135 15.3205 15.7024C15.3205 15.5967 15.2662 15.4941 15.1695 15.4397L5.29715 9.74096C4.42437 9.2789 4.33377 8.41216 5.28507 7.89876L15.1031 2.19096C16.142 1.58696 17.8362 1.58696 18.8841 2.19096L28.7414 7.88366C35.7991 5.12338 43.5817 2.48088 51.6723 1.20342C51.9712 1.14906 52.2763 1.09772 52.5752 1.04638C53.0826 0.774582 53.5839 0.481643 54.0852 0.197763C45.2759 1.52656 36.5421 3.91236 28.9075 7.28268L19.1831 1.66851C17.951 0.955786 16.0242 0.955786 14.8011 1.66851L4.98307 7.3763C4.57537 7.61186 4.28545 7.9048 4.12841 8.23398C3.87775 8.30344 3.69957 8.52994 3.69353 8.81382L3.66031 20.5767C3.66031 21.2472 4.06801 21.8542 4.81093 22.28L6.70447 23.3732C2.45231 28.7911 0.262814 34.6831 0.277914 40.8137C0.332274 52.5555 -1.20491 60.184 7.18465 70.5034L5.34547 71.5724C4.72335 71.9348 4.37605 72.4301 4.35793 72.9707C4.40625 75.8155 4.33981 78.3614 4.27941 79.9831C4.09519 85.7091 4.14049 85.7876 9.25033 88.5509C10.7785 89.3784 12.6841 90.4082 15.2179 91.9272C16.5436 92.6369 18.256 92.6369 19.5908 91.9212C19.6361 91.897 28.1616 86.9412 29.3152 86.2708C56.1811 97.5656 89.4555 97.6048 116.303 86.298L126.055 91.9272C127.381 92.6369 129.093 92.6369 130.419 91.9272C130.688 91.6887 131.95 90.982 133.369 90.2149C139.041 87.1134 141.439 85.6366 141.233 84.7427L141.267 73.022C141.267 72.4603 140.91 71.9439 140.267 71.5694L138.413 70.5003C145.519 61.2652 145.31 54.588 145.09 41.0795L145.096 41.0916ZM5.12501 21.7666C4.57537 21.4525 4.27337 21.0327 4.27337 20.5797L4.30659 9.66848C3.95929 9.84364 14.3179 15.5756 14.49 15.7417C11.5848 18.0097 9.15369 20.3653 7.09103 22.9021L5.12199 21.7666H5.12501ZM0.857754 52.4528L0.875874 46.0836C1.94495 50.9579 4.44249 55.4275 7.62557 59.2388C9.75769 61.7846 12.1948 64.0587 14.8192 66.0881L7.72221 70.2134C3.22845 64.6838 0.839634 58.5955 0.857754 52.4528ZM19.31 91.4169V91.4108C18.1533 92.0269 16.6614 92.0269 15.5229 91.4169C12.9921 89.8978 11.0774 88.8619 9.54327 88.0345C4.14407 85.5247 4.6349 84.2173 4.88945 80.0164C4.93777 78.5637 4.99817 76.6521 4.98307 74.2029C7.21787 75.6374 8.56781 76.4437 12.3217 78.4852C12.3307 78.4852 15.2511 80.1825 15.2601 80.1794C15.9608 80.5841 16.903 80.7502 17.7365 80.6989C18.3858 80.6626 19.0925 80.4935 19.6331 80.1734L29.0313 74.7132L28.9981 85.7785L19.7207 91.1722C19.5304 91.281 19.4006 91.3595 19.31 91.4199V91.4169ZM29.5991 85.7453L29.6323 74.6408C56.2898 85.8208 89.4102 85.8721 116.068 74.6679L116.035 85.7725C89.0055 96.9888 56.7217 96.9797 29.5991 85.7453ZM140.651 84.8816C140.496 85.6456 135.311 88.4844 133.088 89.6985C131.355 90.6468 130.392 91.1813 130.111 91.4289C128.96 92.0269 127.486 92.0209 126.354 91.4138L116.635 85.8027L116.669 74.7314C116.986 74.9126 118.855 75.9998 119.109 76.1417L126.085 80.1704C126.454 80.3848 126.876 80.5298 127.326 80.6143C128.353 80.8046 129.522 80.6989 130.431 80.1915C130.452 80.1794 130.476 80.1643 130.497 80.1523L133.146 78.6151C136.969 76.4709 138.301 75.7129 140.672 74.1968L140.641 84.794C140.641 84.8212 140.641 84.8514 140.654 84.8786L140.651 84.8816ZM137.914 70.2225L130.805 66.1183C137.582 60.8545 142.922 54.0625 144.598 46.0051C144.673 56.4906 143.523 63.3913 137.914 70.2225Z" fill="var(--fill-0, #5A6C75)" stroke="#5A6C75" stroke-width="0.4"/>
<path id="Vector_2" d="M21.0861 46.8043C23.1427 40.426 28.4458 34.8239 36.0079 30.7409C36.0079 30.3755 36.0019 30.1339 35.9989 30.0614C35.7965 30.1701 35.6002 30.2758 35.4039 30.3876C27.9566 34.525 23.0521 39.7103 20.7811 45.853C20.3432 44.349 20.0986 42.8209 20.0563 41.2747C20.2043 37.9496 20.6693 35.0384 22.2246 32.1513C24.7735 27.5458 28.7539 23.5624 33.3654 20.6511C33.5194 20.5605 36.319 18.9388 36.3824 18.8965C36.3824 18.8995 36.7388 18.6911 36.7388 18.6911C36.7388 18.6881 36.7508 18.6851 36.7539 18.682L36.775 18.5945C36.775 18.5945 36.769 18.5945 36.7659 18.6005C36.8354 18.3378 36.9049 18.066 36.9924 17.8032C36.7478 17.9271 36.4972 18.066 36.2556 18.1928H36.2495C26.2201 23.5805 17.0695 33.317 19.9898 45.2128C25.6644 64.6767 53.1041 71.8703 72.8851 71.8612C91.4732 71.9518 116.953 65.3773 124.506 48.1361C125.415 45.8922 125.928 43.4853 125.934 41.0663C126.161 38.3634 125.46 35.4521 123.911 32.5137C121.371 27.0293 115.512 21.8893 109.352 18.4374V19.132C109.454 19.1894 109.554 19.2498 109.654 19.3102V19.4703C109.768 19.5276 111.961 20.8112 112.154 20.9169C114.513 22.5326 116.72 24.3838 118.611 26.3528C124.077 31.8583 126.807 38.8285 124.539 46.2395C122.039 38.9251 115.201 32.9757 107.996 29.4574C107.869 29.6175 107.73 29.7715 107.588 29.9195C114.948 33.4801 121.942 39.6318 124.222 47.1848C121.981 53.7503 115.398 59.6212 108.074 63.4264C84.0561 76.5302 32.994 74.4222 21.0801 46.7983L21.0861 46.8043Z" fill="var(--fill-0, #5A6C75)" stroke="#5A6C75" stroke-width="0.4"/>
</g>

</svg>
</svg>
