<svg viewBox="0 0 187 144" fill="none" xmlns="http://www.w3.org/2000/svg">
<svg x="2.60" y="55.41" width="90.94" height="62.01" viewBox="0 0 92.0061 63.0804" fill="none">

<g id="Group">
<path id="Vector" d="M52.6321 22.9693L52.6495 16.5929C52.6495 14.9828 53.7157 13.3726 55.8346 12.1367C57.2002 11.3451 58.837 10.807 60.5746 10.5265L60.5558 16.9042C58.8196 17.1901 57.1814 17.7281 55.8171 18.5144C53.6969 19.7462 52.6361 21.3564 52.6321 22.9693Z" fill="#E9E8E7" stroke="#5A6C75" stroke-width="1.06944" stroke-linecap="round" stroke-linejoin="round"/>
<path id="Vector_2" d="M0.534732 34.6929L0.553531 28.3152C0.553531 30.183 1.78217 32.0535 4.25153 33.4785L4.23407 39.8562C1.76337 38.4312 0.530704 36.5634 0.534732 34.6929Z" fill="#E9E8E7" stroke="#5A6C75" stroke-width="1.06944" stroke-linecap="round" stroke-linejoin="round"/>
<path id="Vector_3" d="M91.4714 28.3532L91.4539 34.7309L73.8435 44.9583L73.8623 38.5806L91.4714 28.3532Z" fill="#E9E8E7" stroke="#5A6C75" stroke-width="1.06944" stroke-linecap="round" stroke-linejoin="round"/>
<path id="Vector_4" d="M82.9267 44.8582L82.9079 51.2359C82.9079 52.846 81.8431 54.4562 79.7229 55.6907C75.4569 58.1691 68.5161 58.1677 64.2219 55.6907C62.569 54.738 61.5525 53.5559 61.1658 52.3227L61.1846 45.945C61.57 47.1795 62.5878 48.3603 64.2407 49.313C68.5376 51.7914 75.4744 51.7914 79.7417 49.313C81.8606 48.0826 82.9267 46.4724 82.9267 44.8582Z" fill="#E9E8E7" stroke="#5A6C75" stroke-width="1.06944" stroke-linecap="round" stroke-linejoin="round"/>
<path id="Vector_5" d="M43.5746 56.1682L43.5571 62.5457L4.23282 39.8576L4.25028 33.4801L43.5746 56.1682Z" fill="#E9E8E7" stroke="#5A6C75" stroke-width="1.06944" stroke-linecap="round" stroke-linejoin="round"/>
<path id="Vector_6" d="M61.1867 45.9405L61.1679 52.3182L43.5575 62.5456L43.5749 56.1679L61.1867 45.9405Z" fill="#E9E8E7" stroke="#5A6C75" stroke-width="1.06944" stroke-linecap="round" stroke-linejoin="round"/>
<path id="Vector_7" d="M91.4708 28.3497L73.8623 38.5754C75.9945 38.7954 78.0382 39.3804 79.6911 40.3344C83.9878 42.8114 84.0079 46.8286 79.7421 49.3055C75.4763 51.7825 68.5344 51.7838 64.2417 49.3055C62.5888 48.3529 61.571 47.1721 61.1857 45.9377L43.5745 56.166L4.25026 33.4766C-0.657384 30.6455 -0.684239 26.0553 4.19118 23.2228L43.2644 0.534722L60.5761 10.5216C58.8386 10.8073 57.2018 11.3454 55.8363 12.1317C51.5704 14.6099 51.5933 18.6272 55.8873 21.1041C60.1813 23.581 67.1205 23.581 71.3863 21.1041C72.7519 20.3111 73.669 19.3598 74.1631 18.3548L91.4708 28.3497Z" fill="#E9E8E7" stroke="#5A6C75" stroke-width="1.06944" stroke-linecap="round" stroke-linejoin="round"/>
</g>

</svg>
<svg x="93.48" y="55.17" width="90.94" height="62.02" viewBox="0 0 92.0157 63.088" fill="none">

<g id="Group">
<path id="Vector" d="M9.08044 18.2359L9.09924 11.8596C9.09924 13.4926 10.1735 15.1296 12.3353 16.3761C13.9856 17.3288 16.0306 17.9139 18.1629 18.1339L18.1455 24.5116C16.0118 24.2916 13.9681 23.7065 12.3165 22.7538C10.156 21.5073 9.07641 19.8703 9.08044 18.2359Z" fill="#E9E8E7" stroke="#5A6C75" stroke-width="1.06944" stroke-linecap="round" stroke-linejoin="round"/>
<path id="Vector_2" d="M91.4728 28.3911L91.4554 34.7675C91.4554 36.6125 90.2375 38.4522 87.8151 39.8597L87.8339 33.482C90.2549 32.0758 91.4675 30.2348 91.4728 28.3911Z" fill="#E9E8E7" stroke="#5A6C75" stroke-width="1.06944" stroke-linecap="round" stroke-linejoin="round"/>
<path id="Vector_3" d="M18.2795 38.5881L18.2607 44.9658L0.534722 34.7384L0.553523 28.3607L18.2795 38.5881Z" fill="#E9E8E7" stroke="#5A6C75" stroke-width="1.06944" stroke-linecap="round" stroke-linejoin="round"/>
<path id="Vector_4" d="M40.0346 39.7343L40.0172 46.112C40.0172 44.4776 38.943 42.8419 36.7811 41.594C32.4842 39.117 25.5475 39.117 21.2815 41.594C19.6393 42.5481 18.6349 43.7289 18.2616 44.9633L18.2804 38.5857C18.6523 37.3512 19.6567 36.1704 21.2989 35.2163C25.5649 32.7393 32.5044 32.7393 36.7986 35.2163C38.9604 36.4642 40.04 38.108 40.0346 39.7343Z" fill="#E9E8E7" stroke="#5A6C75" stroke-width="1.06944" stroke-linecap="round" stroke-linejoin="round"/>
<path id="Vector_5" d="M48.766 56.1715L48.7472 62.5493L31.0199 52.3218L31.0387 45.9442L48.766 56.1715Z" fill="#E9E8E7" stroke="#5A6C75" stroke-width="1.06944" stroke-linecap="round" stroke-linejoin="round"/>
<path id="Vector_6" d="M87.8338 33.4877L87.815 39.8652L48.7458 62.5533L48.7646 56.1758L87.8338 33.4877Z" fill="#E9E8E7" stroke="#5A6C75" stroke-width="1.06944" stroke-linecap="round" stroke-linejoin="round"/>
<path id="Vector_7" d="M87.7839 23.2282C92.6902 26.0593 92.7171 30.6509 87.8416 33.482L48.7684 56.1701L31.0445 45.9431C33.1741 45.723 35.2069 45.138 36.8558 44.1853C41.1216 41.7084 41.0975 37.6911 36.8034 35.2142C32.5094 32.7373 25.5702 32.736 21.3044 35.2142C19.6623 36.1682 18.6579 37.349 18.286 38.5834L0.562043 28.3564L18.1718 18.1294C16.0396 17.9094 13.9946 17.3244 12.3444 16.3717C8.04772 13.8948 8.02624 9.8775 12.2934 7.40058C16.5606 4.92367 23.4998 4.92232 27.7938 7.40058C29.4453 8.35324 30.4618 9.53401 30.8485 10.7671L48.4515 0.534722L87.7839 23.2282Z" fill="#E9E8E7" stroke="#5A6C75" stroke-width="1.06944" stroke-linecap="round" stroke-linejoin="round"/>
</g>

</svg>
<svg x="45.57" y="83.00" width="96.14" height="59.00" viewBox="0 0 97.1964 60.0727" fill="none">

<g id="Group">
<path id="Vector" d="M96.6617 28.3454L96.6429 34.7229L57.5738 57.4123L57.5926 51.0348L96.6617 28.3454Z" fill="#E9E8E7" stroke="#5A6C75" stroke-width="1.06944" stroke-linecap="round" stroke-linejoin="round"/>
<path id="Vector_2" d="M39.8778 51.0348L39.8603 57.4123L0.534722 34.7229L0.553522 28.3454L39.8778 51.0348Z" fill="#E9E8E7" stroke="#5A6C75" stroke-width="1.06944" stroke-linecap="round" stroke-linejoin="round"/>
<path id="Vector_3" d="M57.593 51.0369L57.5742 57.4146C52.6986 60.2458 44.7681 60.2458 39.8603 57.4146L39.8791 51.0369C44.7856 53.8681 52.7174 53.8681 57.593 51.0369Z" fill="#E9E8E7" stroke="#5A6C75" stroke-width="1.06944" stroke-linecap="round" stroke-linejoin="round"/>
<path id="Vector_4" d="M84.6942 7.39387C88.9909 9.87079 89.0124 13.8881 84.7466 16.365C83.1044 17.3176 81.0648 17.9027 78.9353 18.1227L96.6592 28.3497L57.586 51.0391C52.7106 53.8703 44.7791 53.8703 39.8728 51.0391L0.553921 28.3511L18.1637 18.1241C18.5504 19.3572 19.5668 20.5393 21.2197 21.4919C25.5164 23.9688 32.4529 23.9702 36.7201 21.4919C40.9873 19.0137 40.9631 14.9964 36.6691 12.5195C35.0175 11.5668 32.9726 10.9818 30.8403 10.7617L48.4501 0.534722L66.174 10.7617C66.546 9.52731 67.5503 8.34653 69.1925 7.39253C73.461 4.91696 80.4002 4.91696 84.6942 7.39387Z" fill="#E9E8E7" stroke="#5A6C75" stroke-width="1.06944" stroke-linecap="round" stroke-linejoin="round"/>
</g>

</svg>
<svg x="45.22" y="2.00" width="96.12" height="59.00" viewBox="0 0 97.1963 60.073" fill="none">

<g id="Group">
<path id="Vector" d="M17.8659 35.3364L17.8471 41.7141L0.534722 31.7255L0.553523 25.3492L17.8659 35.3364Z" fill="#E9E8E7" stroke="#5A6C75" stroke-width="1.06944" stroke-linecap="round" stroke-linejoin="round"/>
<path id="Vector_2" d="M96.6616 25.3492L96.6441 31.7269L79.0323 41.9529L79.0511 35.5766L96.6616 25.3492Z" fill="#E9E8E7" stroke="#5A6C75" stroke-width="1.06944" stroke-linecap="round" stroke-linejoin="round"/>
<path id="Vector_3" d="M57.292 43.0346L57.3095 36.6569C57.3095 35.0467 58.3756 33.4365 60.4959 32.2021C64.7619 29.7237 71.7013 29.7237 75.9968 32.2021C77.6484 33.1548 78.6649 34.3356 79.0516 35.57L79.0342 41.9464C78.6475 40.7133 77.6296 39.5311 75.978 38.5798C71.6812 36.1014 64.7444 36.1014 60.4771 38.5798C58.3568 39.8102 57.296 41.4204 57.292 43.0346Z" fill="#E9E8E7" stroke="#5A6C75" stroke-width="1.06944" stroke-linecap="round" stroke-linejoin="round"/>
<path id="Vector_4" d="M9.92374 47.78L9.94119 41.4023C9.94119 43.0367 11.0154 44.6737 13.1773 45.9202C17.4741 48.3972 24.4109 48.3972 28.6769 45.9202C30.0425 45.1272 30.9596 44.1759 31.4537 43.1708L31.4349 49.5485C30.9475 50.5549 30.0237 51.5049 28.6594 52.2966C24.3921 54.7749 17.4527 54.7749 13.1598 52.2966C10.998 51.0514 9.91837 49.4144 9.92374 47.78Z" fill="#E9E8E7" stroke="#5A6C75" stroke-width="1.06944" stroke-linecap="round" stroke-linejoin="round"/>
<path id="Vector_5" d="M48.763 53.1605L48.7455 59.5382L31.4332 49.5497L31.452 43.172L48.763 53.1605Z" fill="#E9E8E7" stroke="#5A6C75" stroke-width="1.06944" stroke-linecap="round" stroke-linejoin="round"/>
<path id="Vector_6" d="M66.3746 42.9328L66.3558 49.3105L48.7454 59.5379L48.7628 53.1602L66.3746 42.9328Z" fill="#E9E8E7" stroke="#5A6C75" stroke-width="1.06944" stroke-linecap="round" stroke-linejoin="round"/>
<path id="Vector_7" d="M96.6605 25.3462L79.0507 35.5732C78.664 34.3387 77.6476 33.158 75.9961 32.2053C71.6993 29.7271 64.7615 29.7271 60.4957 32.2053C56.2299 34.6836 56.2513 38.6995 60.5454 41.1778C62.1969 42.1304 64.2405 42.7154 66.3741 42.9341L48.767 53.1612L31.4526 43.173C30.9639 44.1793 30.0414 45.1293 28.6759 45.9223C24.41 48.3992 17.4709 48.3992 13.1768 45.9223C8.88282 43.4454 8.85999 39.4281 13.1258 36.9498C14.4914 36.1582 16.1281 35.6201 17.8656 35.3397L0.553921 25.3475L39.6271 2.65808C44.5025 -0.173064 52.434 -0.173064 57.3416 2.65808L96.6605 25.3462Z" fill="#E9E8E7" stroke="#5A6C75" stroke-width="1.06944" stroke-linecap="round" stroke-linejoin="round"/>
</g>

</svg>
</svg>
