<svg viewBox="0 0 107.275 144" fill="none" xmlns="http://www.w3.org/2000/svg">
<svg x="9.20" y="5.70" width="97.08" height="137.32" viewBox="0 0 97.0821 137.307" fill="none" overflow="visible">

<path id="Vector" d="M36.5316 86.0516C38.2239 84.0815 39.681 81.583 41.0466 77.9755C42.5298 74.7399 43.8954 71.0215 45.1107 66.7225C46.1366 63.0628 47.1755 59.9445 48.2405 57.2308C50.4359 52.2794 52.7555 48.2414 55.1208 44.8557C55.1208 44.8557 55.1208 44.8557 55.1208 44.8426C60.1847 37.6146 65.4249 33.4069 70.0771 29.682C73.5728 26.8834 76.585 24.4566 79.4077 20.9992C80.6687 19.2248 81.9167 17.2677 83.1517 15.1085C81.8645 14.7497 79.3227 14.0321 79.0679 13.9603L95.808 0L97.0821 18.9965L92.5214 17.7374C92.4103 17.9723 92.2927 18.2202 92.1555 18.4615C88.6075 24.9263 84.9158 29.6363 81.3221 33.3286C78.127 36.6099 75.0364 39.0889 72.2595 41.3134C64.4383 47.589 58.7864 52.1163 53.3305 71.4585C46.986 93.9908 36.231 100.632 28.3902 105.492C23.4701 108.538 20.3077 110.626 17.6157 114.983C15.368 118.61 13.447 123.797 11.8527 130.47L0 137.307C2.35877 125.662 5.61924 116.686 9.99048 109.634C15.8972 100.084 22.588 95.9413 27.9655 92.6143C31.4808 90.4354 34.2316 88.7458 36.525 86.0451L36.5316 86.0516Z" fill="#084C79"/>

</svg>
<svg x="80.04" y="0.98" width="24.97" height="18.71" viewBox="0 0 24.9729 18.7029" fill="none" overflow="visible">

<path id="Vector" d="M24.9729 4.74259L8.23284 18.7029H8.21324L0 13.9668L16.7466 0L24.9729 4.74259Z" fill="#084C79"/>

</svg>
<svg x="21.06" y="39.04" width="69.47" height="97.14" viewBox="0 0 69.4695 97.1416" fill="none" overflow="visible">

<path id="Vector" d="M69.4695 0V57.1003L0 97.1416C1.5943 90.4681 3.51529 85.2819 5.76299 81.6548C8.46153 77.2971 11.6174 75.2096 16.5375 72.1631C24.3783 67.3031 35.1333 60.6621 41.4778 38.1299C46.9337 18.7877 52.5791 14.2539 60.4068 7.98478C63.1838 5.76026 66.2743 3.28133 69.4695 0Z" fill="#084C79"/>

</svg>
<svg x="0.99" y="17.11" width="91.38" height="125.93" viewBox="0 0 91.378 125.923" fill="none" overflow="visible">

<path id="Vector" d="M91.3714 3.7184C90.1365 5.87768 88.8885 7.83474 87.6274 9.60913C84.8048 13.0666 81.7926 15.4933 78.2969 18.2919C73.6512 22.0169 68.4044 26.2245 63.3406 33.4526V33.4656C60.8838 36.4795 58.623 40.2762 56.4603 45.8407C54.5001 50.2571 52.6444 55.3977 50.9325 61.445C50.3902 63.3824 49.8348 65.0786 49.2663 66.5855C47.8485 69.6907 46.326 72.3523 44.7513 74.6616C42.4514 77.3623 39.7071 79.0519 36.1918 81.2308C30.8143 84.5578 24.117 88.7002 18.2168 98.2506C13.8455 105.303 10.5851 114.285 8.2263 125.923L0 121.181C2.35877 109.536 5.61924 100.56 9.99048 93.5015C15.8972 83.9576 22.588 79.8152 27.9655 76.4882C35.1268 72.0522 39.0668 69.6124 42.7062 56.7024C50.4359 29.3036 61.3216 20.5686 70.0706 13.5624C74.9972 9.60913 78.9634 6.43218 82.7923 0L87.2746 2.58331C87.2746 2.58331 87.2877 2.58331 87.2942 2.58331C87.549 2.65507 90.0908 3.37266 91.378 3.73145L91.3714 3.7184Z" fill="#084C79"/>

</svg>
<svg x="57.45" y="50.57" width="6.88" height="12.37" viewBox="0 0 6.8803 12.3751" fill="none" overflow="visible">

<path id="Vector" d="M0 12.3751C2.16275 6.81055 4.42351 3.01386 6.8803 0C4.52152 3.3857 2.19542 7.41723 0 12.3751Z" fill="#084C79"/>

</svg>
<svg x="50.26" y="62.94" width="7.19" height="20.75" viewBox="0 0 7.19393 20.7448" fill="none" overflow="visible">

<path id="Vector" d="M7.19393 0C6.12889 2.70726 5.08998 5.83202 4.06414 9.49171C2.84882 13.7907 1.48322 17.5091 0 20.7448C0.568458 19.2378 1.12384 17.5417 1.66617 15.6042C3.37154 9.55695 5.23373 4.41642 7.19393 0Z" fill="#084C79"/>

</svg>
<svg x="45.74" y="83.68" width="4.52" height="8.08" viewBox="0 0 4.51499 8.07611" fill="none" overflow="visible">

<path id="Vector" d="M0 8.07611C1.57469 5.76679 3.09058 3.11172 4.51499 0C3.15592 3.6075 1.69884 6.10601 0 8.07611Z" fill="#084C79"/>

</svg>
<svg x="0.99" y="17.09" width="82.79" height="125.93" viewBox="0 0 83.7588 126.89" fill="none" overflow="visible">

<path id="Vector" d="M83.2755 0.483296C79.4531 6.91548 75.487 10.0924 70.5538 14.0457C61.8048 21.0585 50.9126 29.7869 43.1895 57.1857C39.55 70.0957 35.61 72.5355 28.4488 76.9715C23.0713 80.2985 16.3739 84.4409 10.4737 93.9848C6.10249 101.043 2.84202 110.026 0.483251 121.664L8.70955 126.407" stroke="#FFFFFF" stroke-width="0.966443" stroke-linecap="round" stroke-linejoin="round"/>

</svg>
<svg x="80.03" y="0.98" width="24.98" height="13.95" viewBox="0 0 25.9526 14.9268" fill="none" overflow="visible">

<path id="Vector" d="M0.483327 14.437L0.496393 14.4435L17.243 0.483225L25.4693 5.22582" stroke="#FFFFFF" stroke-width="0.966443" stroke-linecap="round" stroke-linejoin="round"/>

</svg>
<svg x="80.04" y="14.93" width="3.74" height="2.16" viewBox="0 0 4.70405 3.11936" fill="none" overflow="visible">

<path id="Vector" d="M4.22075 2.63606L0.483303 0.483303" stroke="#FFFFFF" stroke-width="0.966443" stroke-linecap="round" stroke-linejoin="round"/>

</svg>
<svg x="9.21" y="39.04" width="81.33" height="104.00" viewBox="0 0 82.2886 104.958" fill="none" overflow="visible">

<path id="Vector" d="M55.5975 12.0168C53.2387 15.4025 50.9126 19.434 48.7172 24.3919C46.757 28.8083 44.9014 33.9488 43.1894 39.9961C42.6471 41.9336 42.0917 43.6297 41.5233 45.1367C40.1577 48.7442 38.7006 51.2361 37.0083 53.2128C34.7018 55.907 31.964 57.6031 28.4488 59.7819C23.0713 63.1089 16.3739 67.2514 10.4737 76.8018C6.10248 83.8537 2.84201 92.8366 0.48324 104.475L81.8054 57.5966V0.483221" stroke="#FFFFFF" stroke-width="0.966443" stroke-linecap="round" stroke-linejoin="round"/>

</svg>
<svg x="64.33" y="19.68" width="28.02" height="30.87" viewBox="0 0 28.9973 31.8489" fill="none" overflow="visible">

<path id="Vector" d="M24.4304 0.483345C24.6852 0.555104 27.2269 1.27269 28.5141 1.63148C27.2792 3.79077 26.0312 5.74782 24.7701 7.52221C21.9474 10.9797 18.9353 13.4064 15.4396 16.205C10.7939 19.9299 5.54711 24.1376 0.483263 31.3657" stroke="#FFFFFF" stroke-width="0.966443" stroke-linecap="round" stroke-linejoin="round"/>

</svg>
<svg x="83.77" y="17.09" width="4.51" height="2.59" viewBox="0 0 5.46845 3.54984" fill="none" overflow="visible">

<path id="Vector" d="M4.98523 3.06661H4.96563L0.483302 0.483302" stroke="#FFFFFF" stroke-width="0.966443" stroke-linecap="round" stroke-linejoin="round"/>

</svg>
<svg x="21.06" y="5.72" width="85.23" height="130.46" viewBox="0 0 86.196 131.437" fill="none" overflow="visible">

<path id="Vector" d="M0.483332 130.953C2.07763 124.28 3.99862 119.094 6.24632 115.467C8.94486 111.109 12.1008 109.021 17.0209 105.975C24.8617 101.115 35.6166 94.474 41.9611 71.9418C47.417 52.5996 53.0624 48.0657 60.8901 41.7966C63.6671 39.5721 66.7577 37.0932 69.9528 33.8118C73.5465 30.1195 77.2382 25.4096 80.7862 18.9448C80.9168 18.7034 81.041 18.4555 81.1521 18.2207L85.7128 19.4797L84.4387 0.483228L67.6986 14.4435" stroke="#FFFFFF" stroke-width="0.966443" stroke-linecap="round" stroke-linejoin="round"/>

</svg>
</svg>
